<svg width="500" height="178" viewBox="0 0 500 178" fill="none" xmlns="http://www.w3.org/2000/svg">
<rect width="500" height="178" fill="#6D6E71"/>
<path d="M161.792 122.127C156.835 122.127 152.105 121.388 147.611 119.928C143.137 118.468 139.061 116.591 135.402 114.316C131.762 112.022 128.596 109.501 125.923 106.771C123.24 104.041 121.183 101.415 119.742 98.8841L123.231 85.8785H124.406C127.411 92.4002 130.861 98.2584 134.757 103.434C136.426 105.662 138.255 107.823 140.255 109.918C142.246 112.022 144.36 113.88 146.588 115.492C148.834 117.084 151.223 118.402 153.754 119.435C156.304 120.449 158.986 120.952 161.792 120.952C163.356 120.952 165.451 120.668 168.087 120.08C170.712 119.502 173.291 118.506 175.822 117.084C178.343 115.672 180.505 113.776 182.306 111.397C184.126 108.998 185.036 106.05 185.036 102.562C185.036 99.0547 184.173 95.8412 182.457 92.9311C180.76 90.002 178.571 87.3762 175.898 85.0443C173.215 82.6934 170.172 80.6269 166.76 78.8259C163.347 77.0059 159.982 75.5176 156.674 74.3517C152.882 72.9866 149.223 71.4131 145.715 69.612C142.227 67.792 139.118 65.6497 136.388 63.1661C133.658 60.692 131.478 57.8198 129.866 54.5589C128.274 51.298 127.477 47.62 127.477 43.525C127.477 39.5342 128.245 35.9036 129.79 32.6427C131.354 29.3819 133.478 26.6139 136.16 24.3389C138.834 22.0449 141.943 20.2628 145.488 18.9925C149.052 17.7318 152.825 17.0967 156.825 17.0967C161.802 17.0967 166.115 17.6086 169.755 18.6134C173.414 19.6277 176.59 21.0211 179.272 22.7843C181.945 24.5285 184.211 26.557 186.059 28.851C187.898 31.126 189.557 33.5338 191.027 36.0553L187.5 48.9092H186.211C184.543 43.2785 182.391 38.2166 179.765 33.7423C178.599 31.9033 177.282 30.0549 175.822 28.2064C174.352 26.339 172.675 24.6801 170.779 23.2393C168.883 21.7795 166.76 20.604 164.409 19.713C162.077 18.8314 159.555 18.3859 156.825 18.3859C155.176 18.3859 153.043 18.6797 150.417 19.258C147.782 19.8457 145.223 20.841 142.72 22.2534C140.236 23.6753 138.075 25.5807 136.236 27.9789C134.388 30.3582 133.468 33.3063 133.468 36.8136C133.468 40.302 134.312 43.5155 136.009 46.4446C137.724 49.3832 139.924 52.0184 142.606 54.3693C145.279 56.7012 148.313 58.7298 151.706 60.474C155.119 62.2181 158.531 63.678 161.944 64.8344C165.736 66.1995 169.385 67.8204 172.902 69.6878C176.409 71.5363 179.538 73.6976 182.268 76.1717C184.998 78.6553 187.159 81.5085 188.751 84.741C190.363 87.9544 191.178 91.5945 191.178 95.6611C191.178 99.6614 190.391 103.301 188.827 106.581C187.254 109.842 185.111 112.629 182.381 114.923C179.67 117.198 176.542 118.971 172.978 120.231C169.414 121.492 165.679 122.127 161.792 122.127Z" fill="white"/>
<path d="M199.945 18.3853H213.671V33.8934C215.311 29.021 218.297 25.163 222.62 22.3286C226.961 19.5038 231.91 17.7975 237.445 17.2098C243 16.6316 248.783 17.2477 254.774 19.0678C260.765 20.8688 266.262 23.9117 271.268 28.2058C276.292 32.481 280.415 38.0548 283.629 44.9273C286.861 51.7808 288.482 60.0373 288.482 69.6872C288.482 79.1191 286.937 87.1955 283.856 93.9163C280.794 100.647 276.538 106.126 271.078 110.372C265.618 114.6 259.181 117.681 251.778 119.624C244.394 121.567 236.365 122.544 227.701 122.544C223.397 122.544 219.018 122.297 214.543 121.823C210.069 121.34 205.633 121.046 201.234 120.951H199.945V119.624C200.116 119.624 200.4 119.491 200.779 119.207C201.178 118.904 201.547 118.373 201.879 117.615C202.23 116.837 202.543 115.681 202.827 114.164C203.13 112.647 203.282 110.733 203.282 108.401V30.9738C203.282 28.5281 203.13 26.5754 202.827 25.1345C202.543 23.6747 202.23 22.5467 201.879 21.7599C201.547 20.9826 201.178 20.4517 200.779 20.1674C200.4 19.864 200.116 19.7124 199.945 19.7124V18.3853ZM278.244 69.6872C278.244 59.6581 276.652 51.1836 273.467 44.2827C270.301 37.3628 266.31 31.9217 261.485 27.9783C256.679 24.0349 251.494 21.485 245.939 20.319C240.403 19.1341 235.218 19.2005 230.393 20.5086C225.558 21.8262 221.568 24.3193 218.411 27.9783C215.245 31.6184 213.671 36.3106 213.671 42.0456V120.383C216.098 120.563 218.468 120.752 220.8 120.951C223.151 121.15 225.445 121.255 227.701 121.255C235.682 121.255 242.792 120.07 249.01 117.69C255.248 115.292 260.537 111.88 264.86 107.453C269.201 103.007 272.519 97.5943 274.794 91.2242C277.088 84.8541 278.244 77.6783 278.244 69.6872Z" fill="white"/>
<path d="M300.575 30.9743C300.575 28.5286 300.423 26.5759 300.12 25.135C299.836 23.6752 299.523 22.5472 299.172 21.7604C298.84 20.9831 298.471 20.4522 298.072 20.1679C297.693 19.8645 297.409 19.7128 297.238 19.7128V18.3857H314.301V19.7128C314.121 19.7128 313.827 19.8645 313.429 20.1679C313.05 20.4522 312.652 20.9831 312.253 21.7604C311.874 22.5472 311.552 23.6752 311.306 25.135C311.078 26.5759 310.964 28.5286 310.964 30.9743V82.39C310.86 89.4995 311.732 95.7747 313.581 101.235C314.358 103.567 315.41 105.88 316.728 108.174C318.036 110.449 319.695 112.477 321.695 114.24C323.686 115.985 326.074 117.407 328.861 118.487C331.639 119.549 334.871 120.08 338.568 120.08C342.18 120.08 346.019 119.606 350.095 118.639C354.19 117.653 357.991 115.795 361.508 113.065C365.015 110.335 367.916 106.524 370.191 101.614C372.485 96.6848 373.641 90.2768 373.641 82.39V42.1977C373.641 38.7852 373.433 35.7044 373.035 32.9459C372.656 30.1685 372.201 27.8082 371.67 25.8554C371.139 23.9122 370.542 22.405 369.888 21.3433C369.253 20.2626 368.646 19.7128 368.068 19.7128V18.3857H380.504V19.7128C379.917 19.7128 379.31 20.2626 378.684 21.3433C378.049 22.405 377.452 23.9122 376.902 25.8554C376.371 27.8082 375.898 30.1685 375.499 32.9459C375.12 35.7044 374.931 38.7852 374.931 42.1977V82.39C374.931 88.5326 374.248 93.7651 372.883 98.0877C371.537 102.41 369.793 106.041 367.651 108.97C365.499 111.909 363.081 114.221 360.408 115.909C357.726 117.606 355.071 118.895 352.446 119.776C349.81 120.667 347.346 121.217 345.052 121.445C342.777 121.691 340.957 121.824 339.592 121.824C338.227 121.824 336.302 121.672 333.828 121.369C331.345 121.084 328.643 120.478 325.714 119.511C322.776 118.525 319.818 117.16 316.841 115.416C313.884 113.653 311.211 111.311 308.841 108.401C306.462 105.472 304.49 101.898 302.926 97.6706C301.352 93.4239 300.575 88.3335 300.575 82.39V30.9743Z" fill="white"/>
<mask id="mask0_664_166913" style="mask-type:luminance" maskUnits="userSpaceOnUse" x="0" y="54" width="500" height="36">
<path d="M0 54.0303H500V89.7293H0V54.0303Z" fill="white"/>
</mask>
<g mask="url(#mask0_664_166913)">
<path d="M0 54.0303H499.934V89.7293H0V54.0303Z" fill="#6D6E71"/>
</g>
<path d="M191.504 80.5196C189.93 80.5196 188.556 80.2068 187.371 79.5717C186.177 78.9461 185.257 78.055 184.603 76.9175C183.939 75.761 183.617 74.415 183.617 72.8983C183.617 71.7418 183.807 70.6612 184.186 69.6753C184.565 68.6705 185.096 67.7984 185.778 67.059C186.48 66.3291 187.305 65.7604 188.243 65.3528C189.2 64.9546 190.234 64.7461 191.352 64.7461C192.205 64.7461 192.983 64.8219 193.665 64.9736C194.367 65.1253 194.954 65.3054 195.409 65.5044C195.883 65.6845 196.215 65.8362 196.395 65.9594L196.471 68.2345L196.319 68.2724C196.064 67.7416 195.694 67.2486 195.22 66.7936C194.765 66.3197 194.168 65.9215 193.438 65.6182C192.727 65.2959 191.883 65.1253 190.897 65.1253C189.731 65.1253 188.698 65.3907 187.788 65.9215C186.878 66.4334 186.158 67.1728 185.627 68.1586C185.096 69.1255 184.812 70.301 184.793 71.6849C184.793 72.7277 184.944 73.7514 185.248 74.7562C185.57 75.7421 186.053 76.6521 186.688 77.4863C187.314 78.3015 188.091 78.9556 189.001 79.458C189.93 79.9414 190.973 80.1784 192.111 80.1784C192.765 80.1784 193.362 80.0646 193.893 79.8371C194.443 79.6096 194.926 79.3253 195.334 78.965C195.76 78.6143 196.064 78.2446 196.244 77.8654L196.206 75.325C196.177 74.851 196.101 74.4908 195.978 74.2633C195.845 74.0168 195.542 73.8367 195.068 73.7325V73.505H197.381V77.7138C197.097 78.1688 196.661 78.6143 196.054 79.0409C195.466 79.4769 194.784 79.8277 194.007 80.1026C193.22 80.3775 192.386 80.5196 191.504 80.5196Z" fill="white"/>
<path d="M223.871 80.5184C223.084 80.5184 222.335 80.4141 221.634 80.215C220.923 80.016 220.288 79.7031 219.738 79.2671C219.179 78.8405 218.724 78.2718 218.373 77.5608C218.041 76.8594 217.88 75.9967 217.88 74.9825V67.7024C217.88 67.0198 217.851 66.5174 217.804 66.1857C217.747 65.8349 217.652 65.579 217.501 65.4273C217.368 65.2757 217.207 65.1809 217.008 65.124V64.8965H220.003V65.124C219.795 65.1809 219.634 65.2757 219.51 65.4273C219.378 65.579 219.283 65.8349 219.207 66.1857C219.15 66.5174 219.131 67.0198 219.131 67.7024V74.4895C219.131 75.883 219.378 76.9921 219.89 77.8263C220.392 78.6604 221.037 79.2576 221.823 79.6084C222.629 79.9686 223.492 80.1392 224.402 80.1392C224.876 80.1392 225.388 80.0634 225.918 79.9117C226.449 79.7411 226.942 79.4472 227.397 79.0396C227.871 78.613 228.25 78.0443 228.535 77.3333C228.838 76.6319 228.99 75.7218 228.99 74.6033V68.0815C228.99 67.3232 228.933 66.7449 228.838 66.3373C228.734 65.9392 228.582 65.6548 228.383 65.5032C228.203 65.3325 227.975 65.1998 227.7 65.124V64.8965H230.203V65.124C229.994 65.1809 229.833 65.2757 229.71 65.4273C229.577 65.579 229.483 65.8349 229.407 66.1857C229.35 66.5174 229.331 67.0198 229.331 67.7024V74.5275C229.331 75.9967 229.075 77.1722 228.573 78.0538C228.061 78.9448 227.397 79.5704 226.563 79.9496C225.729 80.3288 224.828 80.5184 223.871 80.5184Z" fill="white"/>
<path d="M249.672 80.2909V80.0634C249.871 79.9875 250.032 79.8927 250.165 79.76C250.288 79.6084 250.373 79.3714 250.43 79.0396C250.506 78.6889 250.544 78.1675 250.544 77.485V67.7024C250.544 67.0198 250.506 66.5174 250.43 66.1857C250.373 65.8349 250.288 65.579 250.165 65.4273C250.032 65.2757 249.871 65.1809 249.672 65.124V64.8965H252.667V65.124C252.459 65.1809 252.288 65.2757 252.136 65.4273C252.004 65.579 251.918 65.8349 251.871 66.1857C251.814 66.5174 251.795 67.0198 251.795 67.7024V77.485C251.795 78.1675 251.814 78.6889 251.871 79.0396C251.918 79.3714 252.004 79.6084 252.136 79.76C252.288 79.8927 252.459 79.9875 252.667 80.0634V80.2909H249.672Z" fill="white"/>
<path d="M272.672 80.2909V80.0634C272.871 79.9875 273.032 79.8927 273.165 79.76C273.288 79.6084 273.373 79.3714 273.43 79.0396C273.506 78.6889 273.544 78.1675 273.544 77.485V67.7024C273.544 67.0198 273.506 66.5174 273.43 66.1857C273.373 65.8349 273.288 65.579 273.165 65.4273C273.032 65.2757 272.871 65.1809 272.672 65.124V64.8965H277.677C279.118 64.8965 280.369 65.105 281.431 65.5032C282.492 65.9108 283.365 66.4511 284.047 67.1336C284.749 67.8161 285.27 68.6124 285.602 69.5224C285.952 70.4134 286.132 71.3424 286.132 72.3283C286.132 73.4468 285.943 74.4895 285.564 75.4754C285.204 76.4423 284.673 77.2859 283.971 78.0158C283.289 78.7268 282.455 79.2861 281.469 79.6842C280.502 80.0918 279.421 80.2909 278.208 80.2909H272.672ZM274.795 78.395C274.795 78.9069 274.881 79.2955 275.061 79.5704C275.231 79.8548 275.61 79.9875 276.198 79.9875H278.284C280.379 79.9875 281.981 79.3809 283.099 78.1675C284.208 76.9542 284.767 75.2289 284.767 72.9728C284.767 71.9112 284.587 70.9158 284.237 69.9774C283.876 69.0484 283.365 68.2237 282.682 67.5128C282.018 66.7829 281.203 66.2141 280.217 65.8065C279.251 65.4084 278.151 65.1998 276.919 65.1998H274.795V78.395Z" fill="white"/>
<path d="M306.047 80.2909V80.0634C306.246 79.9875 306.407 79.8927 306.54 79.76C306.663 79.6084 306.748 79.3714 306.805 79.0396C306.881 78.6889 306.919 78.1675 306.919 77.485V67.7024C306.919 67.0198 306.881 66.5174 306.805 66.1857C306.748 65.8349 306.663 65.579 306.54 65.4273C306.407 65.2757 306.246 65.1809 306.047 65.124V64.8965H315.905L316.171 67.5128L315.981 67.5507C315.649 66.6976 315.166 66.0909 314.54 65.7307C313.905 65.3799 313.099 65.1998 312.114 65.1998H308.17V71.9491H311.772C312.531 71.9491 313.109 71.9017 313.517 71.7974C313.915 71.6742 314.199 71.5225 314.351 71.3424C314.521 71.1433 314.635 70.9064 314.692 70.622H314.957V73.5795H314.692C314.635 73.2762 314.521 73.0392 314.351 72.8591C314.199 72.66 313.915 72.5084 313.517 72.4041C313.109 72.3093 312.531 72.2524 311.772 72.2524H308.17V79.1154C308.17 79.7031 308.455 79.9875 309.042 79.9875H312.72C313.706 79.9875 314.502 79.8264 315.109 79.4946C315.716 79.1723 316.209 78.5467 316.588 77.6367L316.777 77.6746L316.588 80.2909H306.047Z" fill="white"/>
<path d="M188.426 167C187.639 167 186.89 166.896 186.188 166.696C185.477 166.497 184.842 166.185 184.293 165.749C183.733 165.322 183.278 164.753 182.928 164.042C182.596 163.341 182.435 162.478 182.435 161.464V154.184C182.435 153.501 182.406 152.999 182.359 152.667C182.302 152.316 182.207 152.06 182.055 151.909C181.923 151.757 181.762 151.662 181.562 151.605V151.378H184.558V151.605C184.349 151.662 184.188 151.757 184.065 151.909C183.932 152.06 183.838 152.316 183.762 152.667C183.705 152.999 183.686 153.501 183.686 154.184V160.971C183.686 162.364 183.932 163.474 184.444 164.308C184.947 165.142 185.591 165.739 186.378 166.09C187.184 166.45 188.046 166.621 188.956 166.621C189.43 166.621 189.942 166.545 190.473 166.393C191.004 166.223 191.497 165.929 191.952 165.521C192.426 165.094 192.805 164.526 193.089 163.815C193.393 163.113 193.544 162.203 193.544 161.085V154.563C193.544 153.805 193.487 153.226 193.393 152.819C193.288 152.421 193.137 152.136 192.938 151.985C192.758 151.814 192.53 151.681 192.255 151.605V151.378H194.758V151.605C194.549 151.662 194.388 151.757 194.265 151.909C194.132 152.06 194.037 152.316 193.961 152.667C193.905 152.999 193.886 153.501 193.886 154.184V161.009C193.886 162.478 193.63 163.654 193.127 164.535C192.615 165.426 191.952 166.052 191.118 166.431C190.283 166.81 189.383 167 188.426 167Z" fill="white"/>
<path d="M210.759 166.962L200.369 152.97V163.587C200.369 164.346 200.417 164.933 200.521 165.331C200.644 165.739 200.796 166.033 200.976 166.204C201.175 166.355 201.412 166.469 201.696 166.545V166.772H199.156V166.545C199.355 166.469 199.516 166.374 199.649 166.241C199.801 166.09 199.895 165.853 199.952 165.521C200 165.17 200.028 164.649 200.028 163.966V154.184C200.028 153.501 199.99 152.999 199.914 152.667C199.839 152.316 199.706 152.06 199.535 151.909C199.384 151.757 199.166 151.662 198.891 151.605V151.378H200.711L210.721 164.763V154.563C210.721 153.805 210.654 153.226 210.531 152.819C210.427 152.421 210.275 152.136 210.076 151.985C209.896 151.814 209.669 151.681 209.394 151.605V151.378H211.896V151.605C211.688 151.662 211.527 151.757 211.403 151.909C211.271 152.06 211.176 152.316 211.1 152.667C211.043 152.999 211.024 153.501 211.024 154.184V166.962H210.759Z" fill="white"/>
<path d="M216.602 166.772V166.545C216.801 166.469 216.962 166.374 217.094 166.241C217.218 166.09 217.303 165.853 217.36 165.521C217.436 165.17 217.474 164.649 217.474 163.966V154.184C217.474 153.501 217.436 152.999 217.36 152.667C217.303 152.316 217.218 152.06 217.094 151.909C216.962 151.757 216.801 151.662 216.602 151.605V151.378H219.597V151.605C219.388 151.662 219.218 151.757 219.066 151.909C218.933 152.06 218.848 152.316 218.801 152.667C218.744 152.999 218.725 153.501 218.725 154.184V163.966C218.725 164.649 218.744 165.17 218.801 165.521C218.848 165.853 218.933 166.09 219.066 166.241C219.218 166.374 219.388 166.469 219.597 166.545V166.772H216.602Z" fill="white"/>
<path d="M224.834 153.956C224.578 153.331 224.35 152.857 224.151 152.553C223.971 152.25 223.791 152.041 223.62 151.909C223.469 151.757 223.326 151.662 223.203 151.605V151.378H225.971V151.605C225.763 151.662 225.63 151.757 225.554 151.909C225.497 152.041 225.516 152.25 225.592 152.553C225.687 152.857 225.857 153.331 226.085 153.956L230.597 165.483L234.995 153.994C235.27 153.293 235.384 152.733 235.337 152.326C235.308 151.928 235.109 151.681 234.73 151.605V151.378H237.119V151.605C236.939 151.662 236.749 151.757 236.55 151.909C236.37 152.041 236.18 152.269 235.981 152.591C235.801 152.895 235.583 153.369 235.337 153.994L230.332 167H229.952L224.834 153.956Z" fill="white"/>
<path d="M240.656 166.772V166.545C240.855 166.469 241.016 166.374 241.149 166.241C241.272 166.09 241.358 165.853 241.415 165.521C241.49 165.17 241.528 164.649 241.528 163.966V154.184C241.528 153.501 241.49 152.999 241.415 152.667C241.358 152.316 241.272 152.06 241.149 151.909C241.016 151.757 240.855 151.662 240.656 151.605V151.378H250.515L250.78 153.994L250.591 154.032C250.259 153.179 249.775 152.572 249.15 152.212C248.515 151.861 247.709 151.681 246.723 151.681H242.78V158.431H246.382C247.14 158.431 247.718 158.383 248.126 158.279C248.524 158.156 248.808 158.004 248.96 157.824C249.131 157.625 249.244 157.388 249.301 157.103H249.567V160.061H249.301C249.244 159.758 249.131 159.521 248.96 159.341C248.808 159.141 248.524 158.99 248.126 158.886C247.718 158.791 247.14 158.734 246.382 158.734H242.78V165.597C242.78 166.185 243.064 166.469 243.652 166.469H247.33C248.316 166.469 249.112 166.308 249.718 165.976C250.325 165.654 250.818 165.028 251.197 164.118L251.387 164.156L251.197 166.772H240.656Z" fill="white"/>
<path d="M267.181 166.924C266.65 166.924 266.233 166.791 265.929 166.545C265.645 166.27 265.408 165.891 265.209 165.407C265.029 164.905 264.792 164.327 264.488 163.663C264.185 162.962 263.901 162.298 263.654 161.691C263.427 161.085 263.161 160.573 262.858 160.137C262.555 159.71 262.138 159.378 261.607 159.151C261.095 158.904 260.431 158.772 259.597 158.772H258.08V163.966C258.08 164.649 258.099 165.17 258.156 165.521C258.204 165.853 258.289 166.09 258.422 166.241C258.573 166.374 258.744 166.469 258.952 166.545V166.772H255.957V166.545C256.156 166.469 256.317 166.374 256.45 166.241C256.573 166.09 256.658 165.853 256.715 165.521C256.791 165.17 256.829 164.649 256.829 163.966V154.184C256.829 153.501 256.791 152.999 256.715 152.667C256.658 152.316 256.573 152.06 256.45 151.909C256.317 151.757 256.156 151.662 255.957 151.605V151.378H260.014C262.062 151.378 263.522 151.672 264.413 152.25C265.323 152.838 265.778 153.653 265.778 154.715C265.778 155.776 265.379 156.677 264.602 157.407C263.844 158.146 262.754 158.582 261.341 158.734C262.071 158.838 262.668 159.018 263.123 159.265C263.578 159.521 263.939 159.852 264.223 160.251C264.498 160.63 264.735 161.085 264.943 161.616C265.142 162.127 265.37 162.677 265.626 163.284C266.081 164.45 266.47 165.294 266.801 165.824C267.152 166.336 267.503 166.583 267.863 166.583C267.939 166.583 267.996 166.583 268.053 166.583C268.128 166.583 268.185 166.573 268.242 166.545V166.772C268.166 166.791 268.024 166.82 267.825 166.848C267.645 166.896 267.427 166.924 267.181 166.924ZM258.08 158.468H260.393C261.683 158.468 262.668 158.194 263.351 157.634C264.052 157.056 264.413 156.25 264.413 155.208C264.413 154.127 264.014 153.264 263.237 152.629C262.45 152.004 261.095 151.681 259.18 151.681C259 151.681 258.82 151.681 258.649 151.681C258.469 151.681 258.279 151.7 258.08 151.719V158.468Z" fill="white"/>
<path d="M276.79 166.998C276.003 166.998 275.283 166.903 274.629 166.733C273.965 166.562 273.387 166.354 272.885 166.126C272.373 165.88 271.975 165.652 271.671 165.444L271.52 162.6H271.747C271.993 163.311 272.325 163.965 272.733 164.571C273.159 165.178 273.728 165.69 274.439 166.088C275.141 166.467 276.032 166.657 277.093 166.657C277.776 166.657 278.383 166.534 278.913 166.278C279.444 166.003 279.871 165.633 280.203 165.178C280.553 164.704 280.733 164.173 280.733 163.586C280.733 163.036 280.591 162.543 280.316 162.107C280.032 161.68 279.672 161.311 279.217 161.007C278.762 160.685 278.269 160.401 277.738 160.173C277.207 159.946 276.695 159.737 276.221 159.528C274.752 158.95 273.662 158.344 272.96 157.708C272.249 157.083 271.899 156.249 271.899 155.206C271.899 154.4 272.107 153.708 272.543 153.12C272.97 152.514 273.548 152.049 274.287 151.718C275.046 151.395 275.927 151.225 276.942 151.225C278.155 151.225 279.112 151.367 279.823 151.642C280.525 151.926 281.018 152.154 281.302 152.324L281.378 154.561L281.188 154.599C280.961 154.068 280.658 153.575 280.278 153.12C279.899 152.665 279.387 152.305 278.762 152.021C278.155 151.718 277.359 151.566 276.373 151.566C275.766 151.566 275.197 151.68 274.667 151.907C274.136 152.135 273.7 152.476 273.377 152.931C273.074 153.367 272.922 153.917 272.922 154.599C272.922 155.159 273.046 155.642 273.302 156.04C273.548 156.419 273.889 156.761 274.325 157.064C274.752 157.348 275.216 157.614 275.728 157.86C276.231 158.088 276.733 158.306 277.245 158.505C278.127 158.865 278.913 159.225 279.596 159.604C280.278 159.983 280.809 160.429 281.188 160.931C281.568 161.443 281.757 162.088 281.757 162.865C281.757 163.68 281.53 164.401 281.075 165.026C280.62 165.633 280.013 166.117 279.255 166.467C278.496 166.818 277.672 166.998 276.79 166.998Z" fill="white"/>
<path d="M286.281 166.772V166.545C286.48 166.469 286.641 166.374 286.774 166.241C286.897 166.09 286.983 165.853 287.04 165.521C287.115 165.17 287.153 164.649 287.153 163.966V154.184C287.153 153.501 287.115 152.999 287.04 152.667C286.983 152.316 286.897 152.06 286.774 151.909C286.641 151.757 286.48 151.662 286.281 151.605V151.378H289.277V151.605C289.068 151.662 288.898 151.757 288.746 151.909C288.613 152.06 288.528 152.316 288.48 152.667C288.424 152.999 288.405 153.501 288.405 154.184V163.966C288.405 164.649 288.424 165.17 288.48 165.521C288.528 165.853 288.613 166.09 288.746 166.241C288.898 166.374 289.068 166.469 289.277 166.545V166.772H286.281Z" fill="white"/>
<path d="M297.588 166.772V166.545C297.815 166.469 297.986 166.374 298.119 166.241C298.242 166.09 298.327 165.853 298.384 165.521C298.46 165.17 298.498 164.649 298.498 163.966V151.681H296.981C296.299 151.681 295.739 151.748 295.313 151.871C294.905 151.975 294.564 152.174 294.289 152.478C294.033 152.762 293.796 153.141 293.568 153.615L293.379 153.539L293.531 151.378H304.678L304.792 153.539L304.602 153.615C304.375 153.141 304.119 152.762 303.844 152.478C303.588 152.174 303.247 151.975 302.82 151.871C302.413 151.748 301.882 151.681 301.228 151.681H299.749V163.966C299.749 164.649 299.768 165.17 299.825 165.521C299.872 165.853 299.958 166.09 300.09 166.241C300.242 166.374 300.413 166.469 300.621 166.545V166.772H297.588Z" fill="white"/>
<path d="M312.02 166.772V166.545C312.219 166.469 312.38 166.374 312.513 166.241C312.636 166.09 312.721 165.853 312.778 165.521C312.854 165.17 312.892 164.649 312.892 163.966L312.854 159.947L309.48 153.805C309.148 153.226 308.854 152.8 308.607 152.515C308.38 152.212 308.171 152.004 308.001 151.871C307.821 151.748 307.659 151.662 307.508 151.605V151.378H310.314V151.605C310.105 151.662 309.982 151.748 309.935 151.871C309.906 152.004 309.953 152.212 310.086 152.515C310.238 152.8 310.475 153.226 310.807 153.805L313.992 159.492L317.177 153.805C317.556 153.151 317.764 152.648 317.821 152.288C317.869 151.909 317.708 151.681 317.328 151.605V151.378H319.717V151.605C319.537 151.662 319.338 151.748 319.11 151.871C318.902 152.004 318.674 152.212 318.428 152.515C318.2 152.8 317.907 153.226 317.556 153.805L314.143 159.909V163.966C314.143 164.649 314.162 165.17 314.219 165.521C314.267 165.853 314.352 166.09 314.485 166.241C314.636 166.374 314.807 166.469 315.015 166.545V166.772H312.02Z" fill="white"/>
</svg>
