<svg width="1054" height="355" viewBox="0 0 1054 355" fill="none" xmlns="http://www.w3.org/2000/svg">
<rect x="18.5" y="16.5" width="1003" height="307" fill="#E7E6E7" stroke="#641515"/>
<g filter="url(#filter0_d_398_4332)">
<path d="M415.877 334H618.123V309.634H415.877V334Z" fill="#9366C9"/>
<path d="M627.604 334H820.822V309.634H627.604V334Z" fill="#9366C9"/>
<path d="M618.123 334H627.604V309.634H618.123V334Z" fill="#9366C9"/>
<path d="M627.604 309.634V233.829H618.123V309.634H627.604Z" fill="#9366C9"/>
<path d="M829.85 334H1007.72V309.634H829.85V334Z" fill="#9366C9"/>
<path d="M829.85 309.634V233.829H820.822V309.634H829.85Z" fill="#9366C9"/>
<path d="M820.822 334H829.85V309.634H820.822V334Z" fill="#9366C9"/>
<path d="M1033 309.634V233.829H1007.72V309.634H1033Z" fill="#9366C9"/>
<path d="M1033 233.829V205.402H1007.72V233.829H1033Z" fill="#9366C9"/>
<path d="M1007.72 334H1033V309.634H1007.72V334Z" fill="#9366C9"/>
<path d="M1007.72 233.829V205.402H829.85V233.829H1007.72Z" fill="#9366C9"/>
<path d="M829.85 233.829V205.402H820.822V233.829H829.85Z" fill="#9366C9"/>
<path d="M1033 205.402V130.951H1007.72V205.402H1033Z" fill="#9366C9"/>
<path d="M829.85 205.402V130.951H820.822V205.402H829.85Z" fill="#9366C9"/>
<path d="M829.85 130.951V104.78H820.822V130.951H829.85Z" fill="#9366C9"/>
<path d="M1007.72 130.951V104.78H829.85V130.951H1007.72Z" fill="#9366C9"/>
<path d="M1033 130.951V104.78H1007.72V130.951H1033Z" fill="#9366C9"/>
<path d="M1033 104.78V28.9756H1007.72V104.78H1033Z" fill="#9366C9"/>
<path d="M1033 28.9756V1H1007.72V28.9756H1033Z" fill="#9366C9"/>
<path d="M1007.72 1H829.85V28.9756H1007.72V1Z" fill="#9366C9"/>
<path d="M829.85 1H820.822V28.9756H829.85V1Z" fill="#9366C9"/>
<path d="M829.85 28.9756H820.822V104.78H829.85V28.9756Z" fill="#9366C9"/>
<path d="M820.822 130.951V104.78H627.604V130.951H820.822Z" fill="#9366C9"/>
<path d="M820.822 233.829V205.402H627.604V233.829H820.822Z" fill="#9366C9"/>
<path d="M820.822 1H627.604V28.9756H820.822V1Z" fill="#9366C9"/>
<path d="M627.604 1H618.123V28.9756H627.604V1Z" fill="#9366C9"/>
<path d="M618.123 104.78H627.604V28.9756H618.123V104.78Z" fill="#9366C9"/>
<path d="M618.123 130.951H627.604V104.78H618.123V130.951Z" fill="#9366C9"/>
<path d="M618.123 205.402H627.604V130.951H618.123V205.402Z" fill="#9366C9"/>
<path d="M618.123 233.829H627.604V205.402H618.123V233.829Z" fill="#9366C9"/>
<path d="M618.123 233.829V205.402H415.877V233.829H618.123Z" fill="#9366C9"/>
<path d="M618.123 130.951V104.78H415.877V130.951H618.123Z" fill="#9366C9"/>
<path d="M618.123 1H415.877V28.9756H618.123V1Z" fill="#9366C9"/>
<path d="M415.877 1H407.299V28.9756H415.877V1Z" fill="#9366C9"/>
<path d="M415.877 28.9756H407.299V104.78H415.877V28.9756Z" fill="#9366C9"/>
<path d="M415.877 104.78H407.299V130.951H415.877V104.78Z" fill="#9366C9"/>
<path d="M415.877 130.951H407.299V205.402H415.877V130.951Z" fill="#9366C9"/>
<path d="M415.877 205.402H407.299V233.829H415.877V205.402Z" fill="#9366C9"/>
<path d="M407.299 309.634H415.877V233.829H407.299V309.634Z" fill="#9366C9"/>
<path d="M407.299 334H415.877V309.634H407.299V334Z" fill="#9366C9"/>
<path d="M208.664 334H407.299V309.634H208.664V334Z" fill="#9366C9"/>
<path d="M407.299 233.829V205.402H208.664V233.829H407.299Z" fill="#9366C9"/>
<path d="M407.299 130.951V104.78H208.664V130.951H407.299Z" fill="#9366C9"/>
<path d="M407.299 1H208.664V28.9756H407.299V1Z" fill="#9366C9"/>
<path d="M208.664 1H199.184V28.9756H208.664V1Z" fill="#9366C9"/>
<path d="M199.184 104.78H208.664V28.9756H199.184V104.78Z" fill="#9366C9"/>
<path d="M199.184 205.402H208.664V130.951H199.184V205.402Z" fill="#9366C9"/>
<path d="M199.184 130.951H208.664V104.78H199.184V130.951Z" fill="#9366C9"/>
<path d="M199.184 233.829H208.664V205.402H199.184V233.829Z" fill="#9366C9"/>
<path d="M199.184 309.634H208.664V233.829H199.184V309.634Z" fill="#9366C9"/>
<path d="M199.184 334H208.664V309.634H199.184V334Z" fill="#9366C9"/>
<path d="M23.5722 334H199.184V309.634H23.5722V334Z" fill="#9366C9"/>
<path d="M1 309.634V334H23.5722V309.634H1Z" fill="#9366C9"/>
<path d="M1 233.829V309.634H23.5722V233.829H1Z" fill="#9366C9"/>
<path d="M1 205.402V233.829H23.5722V205.402H1Z" fill="#9366C9"/>
<path d="M199.184 233.829V205.402H23.5722V233.829H199.184Z" fill="#9366C9"/>
<path d="M1 130.951V205.402H23.5722V130.951H1Z" fill="#9366C9"/>
<path d="M1 104.78V130.951H23.5722V104.78H1Z" fill="#9366C9"/>
<path d="M1 28.9756V104.78H23.5722V28.9756H1Z" fill="#9366C9"/>
<path d="M1 1V28.9756H23.5722V1H1Z" fill="#9366C9"/>
<path d="M199.184 1H23.5722V28.9756H199.184V1Z" fill="#9366C9"/>
<path d="M199.184 130.951V104.78H23.5722V130.951H199.184Z" fill="#9366C9"/>
<path d="M1 28.9756V1H23.5722M1 28.9756V104.78M1 28.9756H23.5722M1033 28.9756V1H1007.72M1033 28.9756V104.78M1033 28.9756H1007.72M1007.72 1H829.85M1007.72 1V28.9756M1007.72 334H1033V309.634M1007.72 334H829.85M1007.72 334V309.634M1033 309.634V233.829M1033 309.634H1007.72M1 309.634V334H23.5722M1 309.634V233.829M1 309.634H23.5722M23.5722 1H199.184M23.5722 1V28.9756M23.5722 334H199.184M23.5722 334V309.634M1 104.78V130.951M1 104.78H23.5722M1033 104.78V130.951M1033 104.78H1007.72M1033 130.951V205.402M1033 130.951H1007.72M1 130.951V205.402M1 130.951H23.5722M1 205.402V233.829M1 205.402H23.5722M1033 205.402V233.829M1033 205.402H1007.72M1033 233.829H1007.72M1 233.829H23.5722M199.184 1H208.664M199.184 1V28.9756M199.184 334H208.664M199.184 334V309.634M208.664 334H407.299M208.664 334V309.634M208.664 1H407.299M208.664 1V28.9756M407.299 1H415.877M407.299 1V28.9756M407.299 334H415.877M407.299 334V309.634M415.877 1H618.123M415.877 1V28.9756M415.877 334H618.123M415.877 334V309.634M618.123 1H627.604M618.123 1V28.9756M618.123 334H627.604M618.123 334V309.634M627.604 1H820.822M627.604 1V28.9756M627.604 334H820.822M627.604 334V309.634M820.822 1H829.85M820.822 1V28.9756M820.822 334H829.85M820.822 334V309.634M829.85 1V28.9756M829.85 334V309.634M627.604 28.9756H820.822M627.604 28.9756V104.78M627.604 28.9756H618.123M820.822 28.9756H829.85M820.822 28.9756V104.78M1007.72 28.9756H829.85M1007.72 28.9756V104.78M829.85 28.9756V104.78M1007.72 104.78V130.951M1007.72 104.78H829.85M1007.72 130.951V205.402M1007.72 130.951H829.85M1007.72 205.402V233.829M1007.72 205.402H829.85M1007.72 233.829V309.634M1007.72 233.829H829.85M1007.72 309.634H829.85M829.85 205.402V233.829M829.85 205.402V130.951M829.85 205.402H820.822M829.85 233.829V309.634M829.85 233.829H820.822M829.85 309.634H820.822M829.85 104.78V130.951M829.85 104.78H820.822M829.85 130.951H820.822M820.822 104.78V130.951M820.822 104.78H627.604M820.822 130.951V205.402M820.822 130.951H627.604M820.822 205.402V233.829M820.822 205.402H627.604M820.822 233.829V309.634M820.822 233.829H627.604M820.822 309.634H627.604M627.604 309.634V233.829M627.604 309.634H618.123M627.604 233.829H618.123M627.604 233.829V205.402M618.123 233.829V309.634M618.123 233.829V205.402M618.123 233.829H415.877M618.123 309.634H415.877M627.604 205.402H618.123M627.604 205.402V130.951M618.123 205.402V130.951M618.123 205.402H415.877M627.604 130.951H618.123M627.604 130.951V104.78M618.123 130.951V104.78M618.123 130.951H415.877M618.123 104.78H627.604M618.123 104.78V28.9756M618.123 104.78H415.877M618.123 28.9756H415.877M415.877 28.9756H407.299M415.877 28.9756V104.78M407.299 28.9756V104.78M407.299 28.9756H208.664M415.877 104.78H407.299M415.877 104.78V130.951M407.299 104.78V130.951M407.299 104.78H208.664M407.299 130.951H415.877M407.299 130.951V205.402M407.299 130.951H208.664M415.877 130.951V205.402M407.299 205.402H415.877M407.299 205.402V233.829M407.299 205.402H208.664M415.877 205.402V233.829M415.877 309.634H407.299M415.877 309.634V233.829M407.299 309.634V233.829M407.299 309.634H208.664M407.299 233.829H415.877M407.299 233.829H208.664M208.664 309.634H199.184M208.664 309.634V233.829M199.184 309.634V233.829M199.184 309.634H23.5722M208.664 233.829H199.184M208.664 233.829V205.402M199.184 233.829V205.402M199.184 233.829H23.5722M199.184 205.402H208.664M199.184 205.402V130.951M199.184 205.402H23.5722M208.664 205.402V130.951M199.184 130.951H208.664M199.184 130.951V104.78M199.184 130.951H23.5722M208.664 130.951V104.78M208.664 104.78H199.184M208.664 104.78V28.9756M199.184 104.78V28.9756M199.184 104.78H23.5722M199.184 28.9756H208.664M199.184 28.9756H23.5722M23.5722 28.9756V104.78M23.5722 104.78V130.951M23.5722 130.951V205.402M23.5722 205.402V233.829M23.5722 233.829V309.634" stroke="#6B3BA4" stroke-dasharray="2 2"/>
</g>
<g filter="url(#filter1_i_398_4332)">
<path d="M181 104V55H150V104H181Z" fill="#6A3BA4"/>
</g>
<path d="M181 104V55H150V104H181Z" stroke="#6B3BA4"/>
<g filter="url(#filter2_i_398_4332)">
<path d="M181 205V156H150V205H181Z" fill="#6A3BA4"/>
</g>
<path d="M181 205V156H150V205H181Z" stroke="#6B3BA4"/>
<g filter="url(#filter3_i_398_4332)">
<path d="M181 310V261H150V310H181Z" fill="#6A3BA4"/>
</g>
<path d="M181 310V261H150V310H181Z" stroke="#6B3BA4"/>
<g filter="url(#filter4_i_398_4332)">
<path d="M390 310V261H358V310H390Z" fill="#6A3BA4"/>
</g>
<path d="M390 310V261H358V310H390Z" stroke="#6B3BA4"/>
<g filter="url(#filter5_i_398_4332)">
<path d="M604 310V261H573V310H604Z" fill="#6A3BA4"/>
</g>
<path d="M604 310V261H573V310H604Z" stroke="#6B3BA4"/>
<g filter="url(#filter6_i_398_4332)">
<path d="M807 310V261H776V310H807Z" fill="#6A3BA4"/>
</g>
<path d="M807 310V261H776V310H807Z" stroke="#6B3BA4"/>
<g filter="url(#filter7_i_398_4332)">
<path d="M994 310V261H962V310H994Z" fill="#6A3BA4"/>
</g>
<path d="M994 310V261H962V310H994Z" stroke="#6B3BA4"/>
<g filter="url(#filter8_i_398_4332)">
<path d="M390 205V156H358V205H390Z" fill="#6A3BA4"/>
</g>
<path d="M390 205V156H358V205H390Z" stroke="#6B3BA4"/>
<g filter="url(#filter9_i_398_4332)">
<path d="M604 205V156H573V205H604Z" fill="#6A3BA4"/>
</g>
<path d="M604 205V156H573V205H604Z" stroke="#6B3BA4"/>
<g filter="url(#filter10_i_398_4332)">
<path d="M807 205V156H776V205H807Z" fill="#6A3BA4"/>
</g>
<path d="M807 205V156H776V205H807Z" stroke="#6B3BA4"/>
<g filter="url(#filter11_i_398_4332)">
<path d="M994 205V156H962V205H994Z" fill="#6A3BA4"/>
</g>
<path d="M994 205V156H962V205H994Z" stroke="#6B3BA4"/>
<g filter="url(#filter12_i_398_4332)">
<path d="M390 104V55H358V104H390Z" fill="#6A3BA4"/>
</g>
<path d="M390 104V55H358V104H390Z" stroke="#6B3BA4"/>
<g filter="url(#filter13_i_398_4332)">
<path d="M602 104V55H571V104H602Z" fill="#6A3BA4"/>
</g>
<path d="M602 104V55H571V104H602Z" stroke="#6B3BA4"/>
<g filter="url(#filter14_i_398_4332)">
<path d="M807 104V55H775V104H807Z" fill="#6A3BA4"/>
</g>
<path d="M807 104V55H775V104H807Z" stroke="#6B3BA4"/>
<g filter="url(#filter15_i_398_4332)">
<path d="M995 104V55H963V104H995Z" fill="#6A3BA4"/>
</g>
<path d="M995 104V55H963V104H995Z" stroke="#6B3BA4"/>
<path d="M57.2916 53.056C57.2916 53.552 57.3396 53.912 57.4356 54.136C57.5316 54.36 57.7156 54.512 57.9876 54.592C58.2756 54.672 58.7236 54.712 59.3316 54.712C59.3796 54.712 59.4036 54.76 59.4036 54.856C59.4036 54.952 59.3796 55 59.3316 55C58.8516 55 58.4676 54.992 58.1796 54.976L56.4756 54.952L54.8196 54.976C54.5316 54.992 54.1396 55 53.6436 55C53.5956 55 53.5716 54.952 53.5716 54.856C53.5716 54.76 53.5956 54.712 53.6436 54.712C54.2516 54.712 54.6916 54.672 54.9636 54.592C55.2516 54.512 55.4436 54.36 55.5396 54.136C55.6516 53.896 55.7076 53.536 55.7076 53.056V41.944C55.7076 41.464 55.6516 41.112 55.5396 40.888C55.4436 40.664 55.2516 40.512 54.9636 40.432C54.6916 40.336 54.2516 40.288 53.6436 40.288C53.5956 40.288 53.5716 40.24 53.5716 40.144C53.5716 40.048 53.5956 40 53.6436 40L54.8196 40.024C55.4916 40.056 56.0436 40.072 56.4756 40.072C56.9556 40.072 57.5316 40.056 58.2036 40.024L59.3316 40C59.3796 40 59.4036 40.048 59.4036 40.144C59.4036 40.24 59.3796 40.288 59.3316 40.288C58.7396 40.288 58.2996 40.336 58.0116 40.432C57.7236 40.528 57.5316 40.696 57.4356 40.936C57.3396 41.16 57.2916 41.512 57.2916 41.992V53.056ZM45.3619 84.288C43.8739 84.288 42.5779 83.688 41.4739 82.488L41.4499 82.44C41.4499 82.376 41.4819 82.328 41.5459 82.296C41.6259 82.248 41.6819 82.248 41.7139 82.296C42.1299 82.744 42.6259 83.08 43.2019 83.304C43.7939 83.528 44.3859 83.64 44.9779 83.64C46.0659 83.64 46.8739 83.304 47.4019 82.632C47.9299 81.944 48.1939 81.056 48.1939 79.968C48.1939 77.472 46.7379 76.224 43.8259 76.224C43.8099 76.224 43.7859 76.208 43.7539 76.176C43.7379 76.128 43.7299 76.08 43.7299 76.032C43.7299 75.984 43.7379 75.944 43.7539 75.912C43.7859 75.864 43.8099 75.84 43.8259 75.84C45.2339 75.84 46.2339 75.56 46.8259 75C47.4179 74.44 47.7139 73.664 47.7139 72.672C47.7139 71.712 47.4739 70.976 46.9939 70.464C46.5139 69.936 45.8419 69.672 44.9779 69.672C44.3059 69.672 43.6659 69.84 43.0579 70.176C42.4659 70.496 42.0259 70.968 41.7379 71.592C41.7379 71.608 41.7219 71.616 41.6899 71.616C41.6419 71.616 41.5859 71.6 41.5219 71.568C41.4739 71.536 41.4579 71.504 41.4739 71.472C41.8419 70.608 42.3859 69.936 43.1059 69.456C43.8259 68.976 44.6659 68.736 45.6259 68.736C46.7619 68.736 47.6499 69.056 48.2899 69.696C48.9299 70.32 49.2499 71.104 49.2499 72.048C49.2499 72.992 48.9299 73.848 48.2899 74.616C47.6499 75.384 46.8019 75.88 45.7459 76.104L45.8179 75.912C46.6659 75.848 47.3939 75.984 48.0019 76.32C48.6259 76.656 49.0899 77.136 49.3939 77.76C49.7139 78.368 49.8739 79.048 49.8739 79.8C49.8739 80.68 49.6819 81.464 49.2979 82.152C48.9139 82.824 48.3779 83.352 47.6899 83.736C47.0019 84.104 46.2259 84.288 45.3619 84.288ZM57.0396 84.312C56.0796 84.312 55.2236 83.984 54.4716 83.328C53.7356 82.672 53.1596 81.752 52.7436 80.568C52.3436 79.384 52.1436 78.024 52.1436 76.488C52.1436 74.968 52.3516 73.624 52.7676 72.456C53.1836 71.272 53.7596 70.352 54.4956 69.696C55.2476 69.04 56.1116 68.712 57.0876 68.712C58.0316 68.712 58.8636 69.04 59.5836 69.696C60.3196 70.352 60.8876 71.28 61.2876 72.48C61.6876 73.664 61.8876 75.024 61.8876 76.56C61.8876 78.08 61.6796 79.432 61.2636 80.616C60.8636 81.784 60.2956 82.696 59.5596 83.352C58.8236 83.992 57.9836 84.312 57.0396 84.312ZM57.3276 83.976C58.2876 83.976 59.0076 83.36 59.4876 82.128C59.9676 80.88 60.2076 79.12 60.2076 76.848C60.2076 75.12 60.0556 73.672 59.7516 72.504C59.4636 71.336 59.0636 70.464 58.5516 69.888C58.0556 69.312 57.4796 69.024 56.8236 69.024C55.8636 69.024 55.1196 69.68 54.5916 70.992C54.0796 72.304 53.8236 74.08 53.8236 76.32C53.8236 78.672 54.1356 80.536 54.7596 81.912C55.3836 83.288 56.2396 83.976 57.3276 83.976ZM64.7431 84C64.7111 84 64.6951 83.952 64.6951 83.856C64.6951 83.76 64.7111 83.712 64.7431 83.712C65.4951 83.712 66.0551 83.672 66.4231 83.592C66.7911 83.496 67.0471 83.336 67.1911 83.112C67.3511 82.888 67.4311 82.536 67.4311 82.056V72.168C67.4311 71.32 67.2231 70.896 66.8071 70.896C66.4071 70.896 65.6871 71.28 64.6471 72.048L64.5991 72.072C64.5351 72.072 64.4871 72.032 64.4551 71.952C64.4231 71.872 64.4391 71.816 64.5031 71.784L68.5111 68.832C68.5911 68.784 68.6471 68.76 68.6791 68.76C68.7111 68.76 68.7431 68.776 68.7751 68.808C68.8071 68.84 68.8231 68.872 68.8231 68.904V82.056C68.8231 82.536 68.8871 82.896 69.0151 83.136C69.1431 83.36 69.3831 83.512 69.7351 83.592C70.1031 83.672 70.6871 83.712 71.4871 83.712C71.5191 83.712 71.5351 83.76 71.5351 83.856C71.5351 83.952 71.5191 84 71.4871 84C70.8951 84 70.4311 83.992 70.0951 83.976L68.1271 83.952L66.2071 83.976C65.8551 83.992 65.3671 84 64.7431 84Z" fill="black"/>
<path d="M57.2916 156.056C57.2916 156.552 57.3396 156.912 57.4356 157.136C57.5316 157.36 57.7156 157.512 57.9876 157.592C58.2756 157.672 58.7236 157.712 59.3316 157.712C59.3796 157.712 59.4036 157.76 59.4036 157.856C59.4036 157.952 59.3796 158 59.3316 158C58.8516 158 58.4676 157.992 58.1796 157.976L56.4756 157.952L54.8196 157.976C54.5316 157.992 54.1396 158 53.6436 158C53.5956 158 53.5716 157.952 53.5716 157.856C53.5716 157.76 53.5956 157.712 53.6436 157.712C54.2516 157.712 54.6916 157.672 54.9636 157.592C55.2516 157.512 55.4436 157.36 55.5396 157.136C55.6516 156.896 55.7076 156.536 55.7076 156.056V144.944C55.7076 144.464 55.6516 144.112 55.5396 143.888C55.4436 143.664 55.2516 143.512 54.9636 143.432C54.6916 143.336 54.2516 143.288 53.6436 143.288C53.5956 143.288 53.5716 143.24 53.5716 143.144C53.5716 143.048 53.5956 143 53.6436 143L54.8196 143.024C55.4916 143.056 56.0436 143.072 56.4756 143.072C56.9556 143.072 57.5316 143.056 58.2036 143.024L59.3316 143C59.3796 143 59.4036 143.048 59.4036 143.144C59.4036 143.24 59.3796 143.288 59.3316 143.288C58.7396 143.288 58.2996 143.336 58.0116 143.432C57.7236 143.528 57.5316 143.696 57.4356 143.936C57.3396 144.16 57.2916 144.512 57.2916 144.992V156.056ZM41.3819 187C41.3019 187 41.2299 186.96 41.1659 186.88C41.1179 186.8 41.1259 186.736 41.1899 186.688L42.5579 184.984C43.7099 183.576 44.6299 182.408 45.3179 181.48C46.0059 180.536 46.5819 179.576 47.0459 178.6C47.5099 177.608 47.7419 176.656 47.7419 175.744C47.7419 174.816 47.4939 174.088 46.9979 173.56C46.5019 173.016 45.8059 172.744 44.9099 172.744C44.1099 172.744 43.4299 172.976 42.8699 173.44C42.3099 173.888 41.8939 174.536 41.6219 175.384C41.6219 175.4 41.5899 175.408 41.5259 175.408C41.3979 175.408 41.3419 175.376 41.3579 175.312C41.5819 174.176 42.0699 173.296 42.8219 172.672C43.5739 172.048 44.5019 171.736 45.6059 171.736C46.7579 171.736 47.6619 172.072 48.3179 172.744C48.9899 173.4 49.3259 174.248 49.3259 175.288C49.3259 176.216 49.0699 177.176 48.5579 178.168C48.0459 179.16 47.4539 180.072 46.7819 180.904C46.1099 181.736 45.2779 182.696 44.2859 183.784C44.1419 183.944 43.8859 184.224 43.5179 184.624C43.1659 185.008 42.9019 185.328 42.7259 185.584C42.6459 185.696 42.6779 185.752 42.8219 185.752C44.9019 185.752 46.3739 185.728 47.2379 185.68C48.1019 185.616 48.7099 185.472 49.0619 185.248C49.4139 185.008 49.5979 184.624 49.6139 184.096C49.6139 184.064 49.6539 184.048 49.7339 184.048C49.8299 184.048 49.8779 184.064 49.8779 184.096L49.8539 186.736C49.8539 186.8 49.8299 186.864 49.7819 186.928C49.7499 186.976 49.7019 187 49.6379 187H41.3819ZM57.2037 187.312C56.2437 187.312 55.3877 186.984 54.6357 186.328C53.8997 185.672 53.3237 184.752 52.9077 183.568C52.5077 182.384 52.3077 181.024 52.3077 179.488C52.3077 177.968 52.5157 176.624 52.9317 175.456C53.3477 174.272 53.9237 173.352 54.6597 172.696C55.4117 172.04 56.2757 171.712 57.2517 171.712C58.1957 171.712 59.0277 172.04 59.7477 172.696C60.4837 173.352 61.0517 174.28 61.4517 175.48C61.8517 176.664 62.0517 178.024 62.0517 179.56C62.0517 181.08 61.8437 182.432 61.4277 183.616C61.0277 184.784 60.4597 185.696 59.7237 186.352C58.9877 186.992 58.1477 187.312 57.2037 187.312ZM57.4917 186.976C58.4517 186.976 59.1717 186.36 59.6517 185.128C60.1317 183.88 60.3717 182.12 60.3717 179.848C60.3717 178.12 60.2197 176.672 59.9157 175.504C59.6277 174.336 59.2277 173.464 58.7157 172.888C58.2197 172.312 57.6437 172.024 56.9877 172.024C56.0277 172.024 55.2837 172.68 54.7557 173.992C54.2437 175.304 53.9877 177.08 53.9877 179.32C53.9877 181.672 54.2997 183.536 54.9237 184.912C55.5477 186.288 56.4037 186.976 57.4917 186.976ZM64.9071 187C64.8751 187 64.8591 186.952 64.8591 186.856C64.8591 186.76 64.8751 186.712 64.9071 186.712C65.6591 186.712 66.2191 186.672 66.5871 186.592C66.9551 186.496 67.2111 186.336 67.3551 186.112C67.5151 185.888 67.5951 185.536 67.5951 185.056V175.168C67.5951 174.32 67.3871 173.896 66.9711 173.896C66.5711 173.896 65.8511 174.28 64.8111 175.048L64.7631 175.072C64.6991 175.072 64.6511 175.032 64.6191 174.952C64.5871 174.872 64.6031 174.816 64.6671 174.784L68.6751 171.832C68.7551 171.784 68.8111 171.76 68.8431 171.76C68.8751 171.76 68.9071 171.776 68.9391 171.808C68.9711 171.84 68.9871 171.872 68.9871 171.904V185.056C68.9871 185.536 69.0511 185.896 69.1791 186.136C69.3071 186.36 69.5471 186.512 69.8991 186.592C70.2671 186.672 70.8511 186.712 71.6511 186.712C71.6831 186.712 71.6991 186.76 71.6991 186.856C71.6991 186.952 71.6831 187 71.6511 187C71.0591 187 70.5951 186.992 70.2591 186.976L68.2911 186.952L66.3711 186.976C66.0191 186.992 65.5311 187 64.9071 187Z" fill="black"/>
<path d="M57.7916 258.056C57.7916 258.552 57.8396 258.912 57.9356 259.136C58.0316 259.36 58.2156 259.512 58.4876 259.592C58.7756 259.672 59.2236 259.712 59.8316 259.712C59.8796 259.712 59.9036 259.76 59.9036 259.856C59.9036 259.952 59.8796 260 59.8316 260C59.3516 260 58.9676 259.992 58.6796 259.976L56.9756 259.952L55.3196 259.976C55.0316 259.992 54.6396 260 54.1436 260C54.0956 260 54.0716 259.952 54.0716 259.856C54.0716 259.76 54.0956 259.712 54.1436 259.712C54.7516 259.712 55.1916 259.672 55.4636 259.592C55.7516 259.512 55.9436 259.36 56.0396 259.136C56.1516 258.896 56.2076 258.536 56.2076 258.056V246.944C56.2076 246.464 56.1516 246.112 56.0396 245.888C55.9436 245.664 55.7516 245.512 55.4636 245.432C55.1916 245.336 54.7516 245.288 54.1436 245.288C54.0956 245.288 54.0716 245.24 54.0716 245.144C54.0716 245.048 54.0956 245 54.1436 245L55.3196 245.024C55.9916 245.056 56.5436 245.072 56.9756 245.072C57.4556 245.072 58.0316 245.056 58.7036 245.024L59.8316 245C59.8796 245 59.9036 245.048 59.9036 245.144C59.9036 245.24 59.8796 245.288 59.8316 245.288C59.2396 245.288 58.7996 245.336 58.5116 245.432C58.2236 245.528 58.0316 245.696 57.9356 245.936C57.8396 246.16 57.7916 246.512 57.7916 246.992V258.056ZM43.3173 289C43.2853 289 43.2693 288.952 43.2693 288.856C43.2693 288.76 43.2853 288.712 43.3173 288.712C44.0693 288.712 44.6293 288.672 44.9973 288.592C45.3653 288.496 45.6213 288.336 45.7653 288.112C45.9253 287.888 46.0053 287.536 46.0053 287.056V277.168C46.0053 276.32 45.7973 275.896 45.3813 275.896C44.9813 275.896 44.2613 276.28 43.2213 277.048L43.1733 277.072C43.1093 277.072 43.0613 277.032 43.0293 276.952C42.9973 276.872 43.0133 276.816 43.0773 276.784L47.0853 273.832C47.1653 273.784 47.2213 273.76 47.2533 273.76C47.2853 273.76 47.3173 273.776 47.3493 273.808C47.3813 273.84 47.3973 273.872 47.3973 273.904V287.056C47.3973 287.536 47.4613 287.896 47.5893 288.136C47.7173 288.36 47.9573 288.512 48.3093 288.592C48.6773 288.672 49.2613 288.712 50.0613 288.712C50.0933 288.712 50.1093 288.76 50.1093 288.856C50.1093 288.952 50.0933 289 50.0613 289C49.4693 289 49.0053 288.992 48.6693 288.976L46.7013 288.952L44.7813 288.976C44.4293 288.992 43.9413 289 43.3173 289ZM57.0123 289.312C56.0523 289.312 55.1963 288.984 54.4443 288.328C53.7083 287.672 53.1323 286.752 52.7163 285.568C52.3163 284.384 52.1163 283.024 52.1163 281.488C52.1163 279.968 52.3243 278.624 52.7403 277.456C53.1563 276.272 53.7323 275.352 54.4683 274.696C55.2203 274.04 56.0843 273.712 57.0603 273.712C58.0043 273.712 58.8363 274.04 59.5563 274.696C60.2923 275.352 60.8603 276.28 61.2603 277.48C61.6603 278.664 61.8603 280.024 61.8603 281.56C61.8603 283.08 61.6523 284.432 61.2363 285.616C60.8363 286.784 60.2683 287.696 59.5323 288.352C58.7963 288.992 57.9563 289.312 57.0123 289.312ZM57.3003 288.976C58.2603 288.976 58.9803 288.36 59.4603 287.128C59.9403 285.88 60.1803 284.12 60.1803 281.848C60.1803 280.12 60.0283 278.672 59.7243 277.504C59.4363 276.336 59.0363 275.464 58.5243 274.888C58.0283 274.312 57.4523 274.024 56.7963 274.024C55.8363 274.024 55.0923 274.68 54.5643 275.992C54.0523 277.304 53.7963 279.08 53.7963 281.32C53.7963 283.672 54.1083 285.536 54.7323 286.912C55.3563 288.288 56.2123 288.976 57.3003 288.976ZM64.7157 289C64.6837 289 64.6677 288.952 64.6677 288.856C64.6677 288.76 64.6837 288.712 64.7157 288.712C65.4677 288.712 66.0277 288.672 66.3957 288.592C66.7637 288.496 67.0197 288.336 67.1637 288.112C67.3237 287.888 67.4037 287.536 67.4037 287.056V277.168C67.4037 276.32 67.1957 275.896 66.7797 275.896C66.3797 275.896 65.6597 276.28 64.6197 277.048L64.5717 277.072C64.5077 277.072 64.4597 277.032 64.4277 276.952C64.3957 276.872 64.4117 276.816 64.4757 276.784L68.4837 273.832C68.5637 273.784 68.6197 273.76 68.6517 273.76C68.6837 273.76 68.7157 273.776 68.7477 273.808C68.7797 273.84 68.7957 273.872 68.7957 273.904V287.056C68.7957 287.536 68.8597 287.896 68.9877 288.136C69.1157 288.36 69.3557 288.512 69.7077 288.592C70.0757 288.672 70.6597 288.712 71.4597 288.712C71.4917 288.712 71.5077 288.76 71.5077 288.856C71.5077 288.952 71.4917 289 71.4597 289C70.8677 289 70.4037 288.992 70.0677 288.976L68.0997 288.952L66.1797 288.976C65.8277 288.992 65.3397 289 64.7157 289Z" fill="black"/>
<path d="M242.792 53.056C242.792 53.552 242.84 53.912 242.936 54.136C243.032 54.36 243.216 54.512 243.488 54.592C243.776 54.672 244.224 54.712 244.832 54.712C244.88 54.712 244.904 54.76 244.904 54.856C244.904 54.952 244.88 55 244.832 55C244.352 55 243.968 54.992 243.68 54.976L241.976 54.952L240.32 54.976C240.032 54.992 239.64 55 239.144 55C239.096 55 239.072 54.952 239.072 54.856C239.072 54.76 239.096 54.712 239.144 54.712C239.752 54.712 240.192 54.672 240.464 54.592C240.752 54.512 240.944 54.36 241.04 54.136C241.152 53.896 241.208 53.536 241.208 53.056V41.944C241.208 41.464 241.152 41.112 241.04 40.888C240.944 40.664 240.752 40.512 240.464 40.432C240.192 40.336 239.752 40.288 239.144 40.288C239.096 40.288 239.072 40.24 239.072 40.144C239.072 40.048 239.096 40 239.144 40L240.32 40.024C240.992 40.056 241.544 40.072 241.976 40.072C242.456 40.072 243.032 40.056 243.704 40.024L244.832 40C244.88 40 244.904 40.048 244.904 40.144C244.904 40.24 244.88 40.288 244.832 40.288C244.24 40.288 243.8 40.336 243.512 40.432C243.224 40.528 243.032 40.696 242.936 40.936C242.84 41.16 242.792 41.512 242.792 41.992V53.056ZM230.171 84.288C228.683 84.288 227.387 83.688 226.283 82.488L226.259 82.44C226.259 82.376 226.291 82.328 226.355 82.296C226.435 82.248 226.491 82.248 226.523 82.296C226.939 82.744 227.435 83.08 228.011 83.304C228.603 83.528 229.195 83.64 229.787 83.64C230.875 83.64 231.683 83.304 232.211 82.632C232.739 81.944 233.003 81.056 233.003 79.968C233.003 77.472 231.547 76.224 228.635 76.224C228.619 76.224 228.595 76.208 228.563 76.176C228.547 76.128 228.539 76.08 228.539 76.032C228.539 75.984 228.547 75.944 228.563 75.912C228.595 75.864 228.619 75.84 228.635 75.84C230.043 75.84 231.043 75.56 231.635 75C232.227 74.44 232.523 73.664 232.523 72.672C232.523 71.712 232.283 70.976 231.803 70.464C231.323 69.936 230.651 69.672 229.787 69.672C229.115 69.672 228.475 69.84 227.867 70.176C227.275 70.496 226.835 70.968 226.547 71.592C226.547 71.608 226.531 71.616 226.499 71.616C226.451 71.616 226.395 71.6 226.331 71.568C226.283 71.536 226.267 71.504 226.283 71.472C226.651 70.608 227.195 69.936 227.915 69.456C228.635 68.976 229.475 68.736 230.435 68.736C231.571 68.736 232.459 69.056 233.099 69.696C233.739 70.32 234.059 71.104 234.059 72.048C234.059 72.992 233.739 73.848 233.099 74.616C232.459 75.384 231.611 75.88 230.555 76.104L230.627 75.912C231.475 75.848 232.203 75.984 232.811 76.32C233.435 76.656 233.899 77.136 234.203 77.76C234.523 78.368 234.683 79.048 234.683 79.8C234.683 80.68 234.491 81.464 234.107 82.152C233.723 82.824 233.187 83.352 232.499 83.736C231.811 84.104 231.035 84.288 230.171 84.288ZM241.848 84.312C240.888 84.312 240.032 83.984 239.28 83.328C238.544 82.672 237.968 81.752 237.552 80.568C237.152 79.384 236.952 78.024 236.952 76.488C236.952 74.968 237.16 73.624 237.576 72.456C237.992 71.272 238.568 70.352 239.304 69.696C240.056 69.04 240.92 68.712 241.896 68.712C242.84 68.712 243.672 69.04 244.392 69.696C245.128 70.352 245.696 71.28 246.096 72.48C246.496 73.664 246.696 75.024 246.696 76.56C246.696 78.08 246.488 79.432 246.072 80.616C245.672 81.784 245.104 82.696 244.368 83.352C243.632 83.992 242.792 84.312 241.848 84.312ZM242.136 83.976C243.096 83.976 243.816 83.36 244.296 82.128C244.776 80.88 245.016 79.12 245.016 76.848C245.016 75.12 244.864 73.672 244.56 72.504C244.272 71.336 243.872 70.464 243.36 69.888C242.864 69.312 242.288 69.024 241.632 69.024C240.672 69.024 239.928 69.68 239.4 70.992C238.888 72.304 238.632 74.08 238.632 76.32C238.632 78.672 238.944 80.536 239.568 81.912C240.192 83.288 241.048 83.976 242.136 83.976ZM248.808 84C248.728 84 248.656 83.96 248.592 83.88C248.544 83.8 248.552 83.736 248.616 83.688L249.984 81.984C251.136 80.576 252.056 79.408 252.744 78.48C253.432 77.536 254.008 76.576 254.472 75.6C254.936 74.608 255.168 73.656 255.168 72.744C255.168 71.816 254.92 71.088 254.424 70.56C253.928 70.016 253.232 69.744 252.336 69.744C251.536 69.744 250.856 69.976 250.296 70.44C249.736 70.888 249.32 71.536 249.048 72.384C249.048 72.4 249.016 72.408 248.952 72.408C248.824 72.408 248.768 72.376 248.784 72.312C249.008 71.176 249.496 70.296 250.248 69.672C251 69.048 251.928 68.736 253.032 68.736C254.184 68.736 255.088 69.072 255.744 69.744C256.416 70.4 256.752 71.248 256.752 72.288C256.752 73.216 256.496 74.176 255.984 75.168C255.472 76.16 254.88 77.072 254.208 77.904C253.536 78.736 252.704 79.696 251.712 80.784C251.568 80.944 251.312 81.224 250.944 81.624C250.592 82.008 250.328 82.328 250.152 82.584C250.072 82.696 250.104 82.752 250.248 82.752C252.328 82.752 253.8 82.728 254.664 82.68C255.528 82.616 256.136 82.472 256.488 82.248C256.84 82.008 257.024 81.624 257.04 81.096C257.04 81.064 257.08 81.048 257.16 81.048C257.256 81.048 257.304 81.064 257.304 81.096L257.28 83.736C257.28 83.8 257.256 83.864 257.208 83.928C257.176 83.976 257.128 84 257.064 84H248.808Z" fill="black"/>
<path d="M242.292 156.056C242.292 156.552 242.34 156.912 242.436 157.136C242.532 157.36 242.716 157.512 242.988 157.592C243.276 157.672 243.724 157.712 244.332 157.712C244.38 157.712 244.404 157.76 244.404 157.856C244.404 157.952 244.38 158 244.332 158C243.852 158 243.468 157.992 243.18 157.976L241.476 157.952L239.82 157.976C239.532 157.992 239.14 158 238.644 158C238.596 158 238.572 157.952 238.572 157.856C238.572 157.76 238.596 157.712 238.644 157.712C239.252 157.712 239.692 157.672 239.964 157.592C240.252 157.512 240.444 157.36 240.54 157.136C240.652 156.896 240.708 156.536 240.708 156.056V144.944C240.708 144.464 240.652 144.112 240.54 143.888C240.444 143.664 240.252 143.512 239.964 143.432C239.692 143.336 239.252 143.288 238.644 143.288C238.596 143.288 238.572 143.24 238.572 143.144C238.572 143.048 238.596 143 238.644 143L239.82 143.024C240.492 143.056 241.044 143.072 241.476 143.072C241.956 143.072 242.532 143.056 243.204 143.024L244.332 143C244.38 143 244.404 143.048 244.404 143.144C244.404 143.24 244.38 143.288 244.332 143.288C243.74 143.288 243.3 143.336 243.012 143.432C242.724 143.528 242.532 143.696 242.436 143.936C242.34 144.16 242.292 144.512 242.292 144.992V156.056ZM225.69 187C225.61 187 225.538 186.96 225.474 186.88C225.426 186.8 225.434 186.736 225.498 186.688L226.866 184.984C228.018 183.576 228.938 182.408 229.626 181.48C230.314 180.536 230.89 179.576 231.354 178.6C231.818 177.608 232.05 176.656 232.05 175.744C232.05 174.816 231.802 174.088 231.306 173.56C230.81 173.016 230.114 172.744 229.218 172.744C228.418 172.744 227.738 172.976 227.178 173.44C226.618 173.888 226.202 174.536 225.93 175.384C225.93 175.4 225.898 175.408 225.834 175.408C225.706 175.408 225.65 175.376 225.666 175.312C225.89 174.176 226.378 173.296 227.13 172.672C227.882 172.048 228.81 171.736 229.914 171.736C231.066 171.736 231.97 172.072 232.626 172.744C233.298 173.4 233.634 174.248 233.634 175.288C233.634 176.216 233.378 177.176 232.866 178.168C232.354 179.16 231.762 180.072 231.09 180.904C230.418 181.736 229.586 182.696 228.594 183.784C228.45 183.944 228.194 184.224 227.826 184.624C227.474 185.008 227.21 185.328 227.034 185.584C226.954 185.696 226.986 185.752 227.13 185.752C229.21 185.752 230.682 185.728 231.546 185.68C232.41 185.616 233.018 185.472 233.37 185.248C233.722 185.008 233.906 184.624 233.922 184.096C233.922 184.064 233.962 184.048 234.042 184.048C234.138 184.048 234.186 184.064 234.186 184.096L234.162 186.736C234.162 186.8 234.138 186.864 234.09 186.928C234.058 186.976 234.01 187 233.946 187H225.69ZM241.512 187.312C240.552 187.312 239.696 186.984 238.944 186.328C238.208 185.672 237.632 184.752 237.216 183.568C236.816 182.384 236.616 181.024 236.616 179.488C236.616 177.968 236.824 176.624 237.24 175.456C237.656 174.272 238.232 173.352 238.968 172.696C239.72 172.04 240.584 171.712 241.56 171.712C242.504 171.712 243.336 172.04 244.056 172.696C244.792 173.352 245.36 174.28 245.76 175.48C246.16 176.664 246.36 178.024 246.36 179.56C246.36 181.08 246.152 182.432 245.736 183.616C245.336 184.784 244.768 185.696 244.032 186.352C243.296 186.992 242.456 187.312 241.512 187.312ZM241.8 186.976C242.76 186.976 243.48 186.36 243.96 185.128C244.44 183.88 244.68 182.12 244.68 179.848C244.68 178.12 244.528 176.672 244.224 175.504C243.936 174.336 243.536 173.464 243.024 172.888C242.528 172.312 241.952 172.024 241.296 172.024C240.336 172.024 239.592 172.68 239.064 173.992C238.552 175.304 238.296 177.08 238.296 179.32C238.296 181.672 238.608 183.536 239.232 184.912C239.856 186.288 240.712 186.976 241.8 186.976ZM248.472 187C248.392 187 248.32 186.96 248.256 186.88C248.208 186.8 248.216 186.736 248.28 186.688L249.648 184.984C250.8 183.576 251.72 182.408 252.408 181.48C253.096 180.536 253.672 179.576 254.136 178.6C254.6 177.608 254.832 176.656 254.832 175.744C254.832 174.816 254.584 174.088 254.088 173.56C253.592 173.016 252.896 172.744 252 172.744C251.2 172.744 250.52 172.976 249.96 173.44C249.4 173.888 248.984 174.536 248.712 175.384C248.712 175.4 248.68 175.408 248.616 175.408C248.488 175.408 248.432 175.376 248.448 175.312C248.672 174.176 249.16 173.296 249.912 172.672C250.664 172.048 251.592 171.736 252.696 171.736C253.848 171.736 254.752 172.072 255.408 172.744C256.08 173.4 256.416 174.248 256.416 175.288C256.416 176.216 256.16 177.176 255.648 178.168C255.136 179.16 254.544 180.072 253.872 180.904C253.2 181.736 252.368 182.696 251.376 183.784C251.232 183.944 250.976 184.224 250.608 184.624C250.256 185.008 249.992 185.328 249.816 185.584C249.736 185.696 249.768 185.752 249.912 185.752C251.992 185.752 253.464 185.728 254.328 185.68C255.192 185.616 255.8 185.472 256.152 185.248C256.504 185.008 256.688 184.624 256.704 184.096C256.704 184.064 256.744 184.048 256.824 184.048C256.92 184.048 256.968 184.064 256.968 184.096L256.944 186.736C256.944 186.8 256.92 186.864 256.872 186.928C256.84 186.976 256.792 187 256.728 187H248.472Z" fill="black"/>
<path d="M242.792 258.056C242.792 258.552 242.84 258.912 242.936 259.136C243.032 259.36 243.216 259.512 243.488 259.592C243.776 259.672 244.224 259.712 244.832 259.712C244.88 259.712 244.904 259.76 244.904 259.856C244.904 259.952 244.88 260 244.832 260C244.352 260 243.968 259.992 243.68 259.976L241.976 259.952L240.32 259.976C240.032 259.992 239.64 260 239.144 260C239.096 260 239.072 259.952 239.072 259.856C239.072 259.76 239.096 259.712 239.144 259.712C239.752 259.712 240.192 259.672 240.464 259.592C240.752 259.512 240.944 259.36 241.04 259.136C241.152 258.896 241.208 258.536 241.208 258.056V246.944C241.208 246.464 241.152 246.112 241.04 245.888C240.944 245.664 240.752 245.512 240.464 245.432C240.192 245.336 239.752 245.288 239.144 245.288C239.096 245.288 239.072 245.24 239.072 245.144C239.072 245.048 239.096 245 239.144 245L240.32 245.024C240.992 245.056 241.544 245.072 241.976 245.072C242.456 245.072 243.032 245.056 243.704 245.024L244.832 245C244.88 245 244.904 245.048 244.904 245.144C244.904 245.24 244.88 245.288 244.832 245.288C244.24 245.288 243.8 245.336 243.512 245.432C243.224 245.528 243.032 245.696 242.936 245.936C242.84 246.16 242.792 246.512 242.792 246.992V258.056ZM227.626 289C227.594 289 227.578 288.952 227.578 288.856C227.578 288.76 227.594 288.712 227.626 288.712C228.378 288.712 228.938 288.672 229.306 288.592C229.674 288.496 229.93 288.336 230.074 288.112C230.234 287.888 230.314 287.536 230.314 287.056V277.168C230.314 276.32 230.106 275.896 229.69 275.896C229.29 275.896 228.57 276.28 227.53 277.048L227.482 277.072C227.418 277.072 227.37 277.032 227.338 276.952C227.306 276.872 227.322 276.816 227.386 276.784L231.394 273.832C231.474 273.784 231.53 273.76 231.562 273.76C231.594 273.76 231.626 273.776 231.658 273.808C231.69 273.84 231.706 273.872 231.706 273.904V287.056C231.706 287.536 231.77 287.896 231.898 288.136C232.026 288.36 232.266 288.512 232.618 288.592C232.986 288.672 233.57 288.712 234.37 288.712C234.402 288.712 234.418 288.76 234.418 288.856C234.418 288.952 234.402 289 234.37 289C233.778 289 233.314 288.992 232.978 288.976L231.01 288.952L229.09 288.976C228.738 288.992 228.25 289 227.626 289ZM241.321 289.312C240.361 289.312 239.505 288.984 238.753 288.328C238.017 287.672 237.441 286.752 237.025 285.568C236.625 284.384 236.425 283.024 236.425 281.488C236.425 279.968 236.633 278.624 237.049 277.456C237.465 276.272 238.041 275.352 238.777 274.696C239.529 274.04 240.393 273.712 241.369 273.712C242.313 273.712 243.145 274.04 243.865 274.696C244.601 275.352 245.169 276.28 245.569 277.48C245.969 278.664 246.169 280.024 246.169 281.56C246.169 283.08 245.961 284.432 245.545 285.616C245.145 286.784 244.577 287.696 243.841 288.352C243.105 288.992 242.265 289.312 241.321 289.312ZM241.609 288.976C242.569 288.976 243.289 288.36 243.769 287.128C244.249 285.88 244.489 284.12 244.489 281.848C244.489 280.12 244.337 278.672 244.033 277.504C243.745 276.336 243.345 275.464 242.833 274.888C242.337 274.312 241.761 274.024 241.105 274.024C240.145 274.024 239.401 274.68 238.873 275.992C238.361 277.304 238.105 279.08 238.105 281.32C238.105 283.672 238.417 285.536 239.041 286.912C239.665 288.288 240.521 288.976 241.609 288.976ZM248.28 289C248.2 289 248.128 288.96 248.064 288.88C248.016 288.8 248.024 288.736 248.088 288.688L249.456 286.984C250.608 285.576 251.528 284.408 252.216 283.48C252.904 282.536 253.48 281.576 253.944 280.6C254.408 279.608 254.64 278.656 254.64 277.744C254.64 276.816 254.392 276.088 253.896 275.56C253.4 275.016 252.704 274.744 251.808 274.744C251.008 274.744 250.328 274.976 249.768 275.44C249.208 275.888 248.792 276.536 248.52 277.384C248.52 277.4 248.488 277.408 248.424 277.408C248.296 277.408 248.24 277.376 248.256 277.312C248.48 276.176 248.968 275.296 249.72 274.672C250.472 274.048 251.4 273.736 252.504 273.736C253.656 273.736 254.56 274.072 255.216 274.744C255.888 275.4 256.224 276.248 256.224 277.288C256.224 278.216 255.968 279.176 255.456 280.168C254.944 281.16 254.352 282.072 253.68 282.904C253.008 283.736 252.176 284.696 251.184 285.784C251.04 285.944 250.784 286.224 250.416 286.624C250.064 287.008 249.8 287.328 249.624 287.584C249.544 287.696 249.576 287.752 249.72 287.752C251.8 287.752 253.272 287.728 254.136 287.68C255 287.616 255.608 287.472 255.96 287.248C256.312 287.008 256.496 286.624 256.512 286.096C256.512 286.064 256.552 286.048 256.632 286.048C256.728 286.048 256.776 286.064 256.776 286.096L256.752 288.736C256.752 288.8 256.728 288.864 256.68 288.928C256.648 288.976 256.6 289 256.536 289H248.28Z" fill="black"/>
<path d="M450.792 53.056C450.792 53.552 450.84 53.912 450.936 54.136C451.032 54.36 451.216 54.512 451.488 54.592C451.776 54.672 452.224 54.712 452.832 54.712C452.88 54.712 452.904 54.76 452.904 54.856C452.904 54.952 452.88 55 452.832 55C452.352 55 451.968 54.992 451.68 54.976L449.976 54.952L448.32 54.976C448.032 54.992 447.64 55 447.144 55C447.096 55 447.072 54.952 447.072 54.856C447.072 54.76 447.096 54.712 447.144 54.712C447.752 54.712 448.192 54.672 448.464 54.592C448.752 54.512 448.944 54.36 449.04 54.136C449.152 53.896 449.208 53.536 449.208 53.056V41.944C449.208 41.464 449.152 41.112 449.04 40.888C448.944 40.664 448.752 40.512 448.464 40.432C448.192 40.336 447.752 40.288 447.144 40.288C447.096 40.288 447.072 40.24 447.072 40.144C447.072 40.048 447.096 40 447.144 40L448.32 40.024C448.992 40.056 449.544 40.072 449.976 40.072C450.456 40.072 451.032 40.056 451.704 40.024L452.832 40C452.88 40 452.904 40.048 452.904 40.144C452.904 40.24 452.88 40.288 452.832 40.288C452.24 40.288 451.8 40.336 451.512 40.432C451.224 40.528 451.032 40.696 450.936 40.936C450.84 41.16 450.792 41.512 450.792 41.992V53.056ZM438.335 84.288C436.847 84.288 435.551 83.688 434.447 82.488L434.423 82.44C434.423 82.376 434.455 82.328 434.519 82.296C434.599 82.248 434.655 82.248 434.687 82.296C435.103 82.744 435.599 83.08 436.175 83.304C436.767 83.528 437.359 83.64 437.951 83.64C439.039 83.64 439.847 83.304 440.375 82.632C440.903 81.944 441.167 81.056 441.167 79.968C441.167 77.472 439.711 76.224 436.799 76.224C436.783 76.224 436.759 76.208 436.727 76.176C436.711 76.128 436.703 76.08 436.703 76.032C436.703 75.984 436.711 75.944 436.727 75.912C436.759 75.864 436.783 75.84 436.799 75.84C438.207 75.84 439.207 75.56 439.799 75C440.391 74.44 440.687 73.664 440.687 72.672C440.687 71.712 440.447 70.976 439.967 70.464C439.487 69.936 438.815 69.672 437.951 69.672C437.279 69.672 436.639 69.84 436.031 70.176C435.439 70.496 434.999 70.968 434.711 71.592C434.711 71.608 434.695 71.616 434.663 71.616C434.615 71.616 434.559 71.6 434.495 71.568C434.447 71.536 434.431 71.504 434.447 71.472C434.815 70.608 435.359 69.936 436.079 69.456C436.799 68.976 437.639 68.736 438.599 68.736C439.735 68.736 440.623 69.056 441.263 69.696C441.903 70.32 442.223 71.104 442.223 72.048C442.223 72.992 441.903 73.848 441.263 74.616C440.623 75.384 439.775 75.88 438.719 76.104L438.791 75.912C439.639 75.848 440.367 75.984 440.975 76.32C441.599 76.656 442.063 77.136 442.367 77.76C442.687 78.368 442.847 79.048 442.847 79.8C442.847 80.68 442.655 81.464 442.271 82.152C441.887 82.824 441.351 83.352 440.663 83.736C439.975 84.104 439.199 84.288 438.335 84.288ZM450.012 84.312C449.052 84.312 448.196 83.984 447.444 83.328C446.708 82.672 446.132 81.752 445.716 80.568C445.316 79.384 445.116 78.024 445.116 76.488C445.116 74.968 445.324 73.624 445.74 72.456C446.156 71.272 446.732 70.352 447.468 69.696C448.22 69.04 449.084 68.712 450.06 68.712C451.004 68.712 451.836 69.04 452.556 69.696C453.292 70.352 453.86 71.28 454.26 72.48C454.66 73.664 454.86 75.024 454.86 76.56C454.86 78.08 454.652 79.432 454.236 80.616C453.836 81.784 453.268 82.696 452.532 83.352C451.796 83.992 450.956 84.312 450.012 84.312ZM450.3 83.976C451.26 83.976 451.98 83.36 452.46 82.128C452.94 80.88 453.18 79.12 453.18 76.848C453.18 75.12 453.028 73.672 452.724 72.504C452.436 71.336 452.036 70.464 451.524 69.888C451.028 69.312 450.452 69.024 449.796 69.024C448.836 69.024 448.092 69.68 447.564 70.992C447.052 72.304 446.796 74.08 446.796 76.32C446.796 78.672 447.108 80.536 447.732 81.912C448.356 83.288 449.212 83.976 450.3 83.976ZM460.788 84.288C459.3 84.288 458.004 83.688 456.9 82.488L456.876 82.44C456.876 82.376 456.908 82.328 456.972 82.296C457.052 82.248 457.108 82.248 457.14 82.296C457.556 82.744 458.052 83.08 458.628 83.304C459.22 83.528 459.812 83.64 460.404 83.64C461.492 83.64 462.3 83.304 462.828 82.632C463.356 81.944 463.62 81.056 463.62 79.968C463.62 77.472 462.164 76.224 459.252 76.224C459.236 76.224 459.212 76.208 459.18 76.176C459.164 76.128 459.156 76.08 459.156 76.032C459.156 75.984 459.164 75.944 459.18 75.912C459.212 75.864 459.236 75.84 459.252 75.84C460.66 75.84 461.66 75.56 462.252 75C462.844 74.44 463.14 73.664 463.14 72.672C463.14 71.712 462.9 70.976 462.42 70.464C461.94 69.936 461.268 69.672 460.404 69.672C459.732 69.672 459.092 69.84 458.484 70.176C457.892 70.496 457.452 70.968 457.164 71.592C457.164 71.608 457.148 71.616 457.116 71.616C457.068 71.616 457.012 71.6 456.948 71.568C456.9 71.536 456.884 71.504 456.9 71.472C457.268 70.608 457.812 69.936 458.532 69.456C459.252 68.976 460.092 68.736 461.052 68.736C462.188 68.736 463.076 69.056 463.716 69.696C464.356 70.32 464.676 71.104 464.676 72.048C464.676 72.992 464.356 73.848 463.716 74.616C463.076 75.384 462.228 75.88 461.172 76.104L461.244 75.912C462.092 75.848 462.82 75.984 463.428 76.32C464.052 76.656 464.516 77.136 464.82 77.76C465.14 78.368 465.3 79.048 465.3 79.8C465.3 80.68 465.108 81.464 464.724 82.152C464.34 82.824 463.804 83.352 463.116 83.736C462.428 84.104 461.652 84.288 460.788 84.288Z" fill="black"/>
<path d="M450.792 156.056C450.792 156.552 450.84 156.912 450.936 157.136C451.032 157.36 451.216 157.512 451.488 157.592C451.776 157.672 452.224 157.712 452.832 157.712C452.88 157.712 452.904 157.76 452.904 157.856C452.904 157.952 452.88 158 452.832 158C452.352 158 451.968 157.992 451.68 157.976L449.976 157.952L448.32 157.976C448.032 157.992 447.64 158 447.144 158C447.096 158 447.072 157.952 447.072 157.856C447.072 157.76 447.096 157.712 447.144 157.712C447.752 157.712 448.192 157.672 448.464 157.592C448.752 157.512 448.944 157.36 449.04 157.136C449.152 156.896 449.208 156.536 449.208 156.056V144.944C449.208 144.464 449.152 144.112 449.04 143.888C448.944 143.664 448.752 143.512 448.464 143.432C448.192 143.336 447.752 143.288 447.144 143.288C447.096 143.288 447.072 143.24 447.072 143.144C447.072 143.048 447.096 143 447.144 143L448.32 143.024C448.992 143.056 449.544 143.072 449.976 143.072C450.456 143.072 451.032 143.056 451.704 143.024L452.832 143C452.88 143 452.904 143.048 452.904 143.144C452.904 143.24 452.88 143.288 452.832 143.288C452.24 143.288 451.8 143.336 451.512 143.432C451.224 143.528 451.032 143.696 450.936 143.936C450.84 144.16 450.792 144.512 450.792 144.992V156.056ZM434.355 187C434.275 187 434.203 186.96 434.139 186.88C434.091 186.8 434.099 186.736 434.163 186.688L435.531 184.984C436.683 183.576 437.603 182.408 438.291 181.48C438.979 180.536 439.555 179.576 440.019 178.6C440.483 177.608 440.715 176.656 440.715 175.744C440.715 174.816 440.467 174.088 439.971 173.56C439.475 173.016 438.779 172.744 437.883 172.744C437.083 172.744 436.403 172.976 435.843 173.44C435.283 173.888 434.867 174.536 434.595 175.384C434.595 175.4 434.563 175.408 434.499 175.408C434.371 175.408 434.315 175.376 434.331 175.312C434.555 174.176 435.043 173.296 435.795 172.672C436.547 172.048 437.475 171.736 438.579 171.736C439.731 171.736 440.635 172.072 441.291 172.744C441.963 173.4 442.299 174.248 442.299 175.288C442.299 176.216 442.043 177.176 441.531 178.168C441.019 179.16 440.427 180.072 439.755 180.904C439.083 181.736 438.251 182.696 437.259 183.784C437.115 183.944 436.859 184.224 436.491 184.624C436.139 185.008 435.875 185.328 435.699 185.584C435.619 185.696 435.651 185.752 435.795 185.752C437.875 185.752 439.347 185.728 440.211 185.68C441.075 185.616 441.683 185.472 442.035 185.248C442.387 185.008 442.571 184.624 442.587 184.096C442.587 184.064 442.627 184.048 442.707 184.048C442.803 184.048 442.851 184.064 442.851 184.096L442.827 186.736C442.827 186.8 442.803 186.864 442.755 186.928C442.723 186.976 442.675 187 442.611 187H434.355ZM450.176 187.312C449.216 187.312 448.36 186.984 447.608 186.328C446.872 185.672 446.296 184.752 445.88 183.568C445.48 182.384 445.28 181.024 445.28 179.488C445.28 177.968 445.488 176.624 445.904 175.456C446.32 174.272 446.896 173.352 447.632 172.696C448.384 172.04 449.248 171.712 450.224 171.712C451.168 171.712 452 172.04 452.72 172.696C453.456 173.352 454.024 174.28 454.424 175.48C454.824 176.664 455.024 178.024 455.024 179.56C455.024 181.08 454.816 182.432 454.4 183.616C454 184.784 453.432 185.696 452.696 186.352C451.96 186.992 451.12 187.312 450.176 187.312ZM450.464 186.976C451.424 186.976 452.144 186.36 452.624 185.128C453.104 183.88 453.344 182.12 453.344 179.848C453.344 178.12 453.192 176.672 452.888 175.504C452.6 174.336 452.2 173.464 451.688 172.888C451.192 172.312 450.616 172.024 449.96 172.024C449 172.024 448.256 172.68 447.728 173.992C447.216 175.304 446.96 177.08 446.96 179.32C446.96 181.672 447.272 183.536 447.896 184.912C448.52 186.288 449.376 186.976 450.464 186.976ZM460.952 187.288C459.464 187.288 458.168 186.688 457.064 185.488L457.04 185.44C457.04 185.376 457.072 185.328 457.136 185.296C457.216 185.248 457.272 185.248 457.304 185.296C457.72 185.744 458.216 186.08 458.792 186.304C459.384 186.528 459.976 186.64 460.568 186.64C461.656 186.64 462.464 186.304 462.992 185.632C463.52 184.944 463.784 184.056 463.784 182.968C463.784 180.472 462.328 179.224 459.416 179.224C459.4 179.224 459.376 179.208 459.344 179.176C459.328 179.128 459.32 179.08 459.32 179.032C459.32 178.984 459.328 178.944 459.344 178.912C459.376 178.864 459.4 178.84 459.416 178.84C460.824 178.84 461.824 178.56 462.416 178C463.008 177.44 463.304 176.664 463.304 175.672C463.304 174.712 463.064 173.976 462.584 173.464C462.104 172.936 461.432 172.672 460.568 172.672C459.896 172.672 459.256 172.84 458.648 173.176C458.056 173.496 457.616 173.968 457.328 174.592C457.328 174.608 457.312 174.616 457.28 174.616C457.232 174.616 457.176 174.6 457.112 174.568C457.064 174.536 457.048 174.504 457.064 174.472C457.432 173.608 457.976 172.936 458.696 172.456C459.416 171.976 460.256 171.736 461.216 171.736C462.352 171.736 463.24 172.056 463.88 172.696C464.52 173.32 464.84 174.104 464.84 175.048C464.84 175.992 464.52 176.848 463.88 177.616C463.24 178.384 462.392 178.88 461.336 179.104L461.408 178.912C462.256 178.848 462.984 178.984 463.592 179.32C464.216 179.656 464.68 180.136 464.984 180.76C465.304 181.368 465.464 182.048 465.464 182.8C465.464 183.68 465.272 184.464 464.888 185.152C464.504 185.824 463.968 186.352 463.28 186.736C462.592 187.104 461.816 187.288 460.952 187.288Z" fill="black"/>
<path d="M450.292 258.056C450.292 258.552 450.34 258.912 450.436 259.136C450.532 259.36 450.716 259.512 450.988 259.592C451.276 259.672 451.724 259.712 452.332 259.712C452.38 259.712 452.404 259.76 452.404 259.856C452.404 259.952 452.38 260 452.332 260C451.852 260 451.468 259.992 451.18 259.976L449.476 259.952L447.82 259.976C447.532 259.992 447.14 260 446.644 260C446.596 260 446.572 259.952 446.572 259.856C446.572 259.76 446.596 259.712 446.644 259.712C447.252 259.712 447.692 259.672 447.964 259.592C448.252 259.512 448.444 259.36 448.54 259.136C448.652 258.896 448.708 258.536 448.708 258.056V246.944C448.708 246.464 448.652 246.112 448.54 245.888C448.444 245.664 448.252 245.512 447.964 245.432C447.692 245.336 447.252 245.288 446.644 245.288C446.596 245.288 446.572 245.24 446.572 245.144C446.572 245.048 446.596 245 446.644 245L447.82 245.024C448.492 245.056 449.044 245.072 449.476 245.072C449.956 245.072 450.532 245.056 451.204 245.024L452.332 245C452.38 245 452.404 245.048 452.404 245.144C452.404 245.24 452.38 245.288 452.332 245.288C451.74 245.288 451.3 245.336 451.012 245.432C450.724 245.528 450.532 245.696 450.436 245.936C450.34 246.16 450.292 246.512 450.292 246.992V258.056ZM435.29 289C435.258 289 435.242 288.952 435.242 288.856C435.242 288.76 435.258 288.712 435.29 288.712C436.042 288.712 436.602 288.672 436.97 288.592C437.338 288.496 437.594 288.336 437.738 288.112C437.898 287.888 437.978 287.536 437.978 287.056V277.168C437.978 276.32 437.77 275.896 437.354 275.896C436.954 275.896 436.234 276.28 435.194 277.048L435.146 277.072C435.082 277.072 435.034 277.032 435.002 276.952C434.97 276.872 434.986 276.816 435.05 276.784L439.058 273.832C439.138 273.784 439.194 273.76 439.226 273.76C439.258 273.76 439.29 273.776 439.322 273.808C439.354 273.84 439.37 273.872 439.37 273.904V287.056C439.37 287.536 439.434 287.896 439.562 288.136C439.69 288.36 439.93 288.512 440.282 288.592C440.65 288.672 441.234 288.712 442.034 288.712C442.066 288.712 442.082 288.76 442.082 288.856C442.082 288.952 442.066 289 442.034 289C441.442 289 440.978 288.992 440.642 288.976L438.674 288.952L436.754 288.976C436.402 288.992 435.914 289 435.29 289ZM448.985 289.312C448.025 289.312 447.169 288.984 446.417 288.328C445.681 287.672 445.105 286.752 444.689 285.568C444.289 284.384 444.089 283.024 444.089 281.488C444.089 279.968 444.297 278.624 444.713 277.456C445.129 276.272 445.705 275.352 446.441 274.696C447.193 274.04 448.057 273.712 449.033 273.712C449.977 273.712 450.809 274.04 451.529 274.696C452.265 275.352 452.833 276.28 453.233 277.48C453.633 278.664 453.833 280.024 453.833 281.56C453.833 283.08 453.625 284.432 453.209 285.616C452.809 286.784 452.241 287.696 451.505 288.352C450.769 288.992 449.929 289.312 448.985 289.312ZM449.273 288.976C450.233 288.976 450.953 288.36 451.433 287.128C451.913 285.88 452.153 284.12 452.153 281.848C452.153 280.12 452.001 278.672 451.697 277.504C451.409 276.336 451.009 275.464 450.497 274.888C450.001 274.312 449.425 274.024 448.769 274.024C447.809 274.024 447.065 274.68 446.537 275.992C446.025 277.304 445.769 279.08 445.769 281.32C445.769 283.672 446.081 285.536 446.705 286.912C447.329 288.288 448.185 288.976 449.273 288.976ZM459.76 289.288C458.272 289.288 456.976 288.688 455.872 287.488L455.848 287.44C455.848 287.376 455.88 287.328 455.944 287.296C456.024 287.248 456.08 287.248 456.112 287.296C456.528 287.744 457.024 288.08 457.6 288.304C458.192 288.528 458.784 288.64 459.376 288.64C460.464 288.64 461.272 288.304 461.8 287.632C462.328 286.944 462.592 286.056 462.592 284.968C462.592 282.472 461.136 281.224 458.224 281.224C458.208 281.224 458.184 281.208 458.152 281.176C458.136 281.128 458.128 281.08 458.128 281.032C458.128 280.984 458.136 280.944 458.152 280.912C458.184 280.864 458.208 280.84 458.224 280.84C459.632 280.84 460.632 280.56 461.224 280C461.816 279.44 462.112 278.664 462.112 277.672C462.112 276.712 461.872 275.976 461.392 275.464C460.912 274.936 460.24 274.672 459.376 274.672C458.704 274.672 458.064 274.84 457.456 275.176C456.864 275.496 456.424 275.968 456.136 276.592C456.136 276.608 456.12 276.616 456.088 276.616C456.04 276.616 455.984 276.6 455.92 276.568C455.872 276.536 455.856 276.504 455.872 276.472C456.24 275.608 456.784 274.936 457.504 274.456C458.224 273.976 459.064 273.736 460.024 273.736C461.16 273.736 462.048 274.056 462.688 274.696C463.328 275.32 463.648 276.104 463.648 277.048C463.648 277.992 463.328 278.848 462.688 279.616C462.048 280.384 461.2 280.88 460.144 281.104L460.216 280.912C461.064 280.848 461.792 280.984 462.4 281.32C463.024 281.656 463.488 282.136 463.792 282.76C464.112 283.368 464.272 284.048 464.272 284.8C464.272 285.68 464.08 286.464 463.696 287.152C463.312 287.824 462.776 288.352 462.088 288.736C461.4 289.104 460.624 289.288 459.76 289.288Z" fill="black"/>
<path d="M662.292 53.056C662.292 53.552 662.34 53.912 662.436 54.136C662.532 54.36 662.716 54.512 662.988 54.592C663.276 54.672 663.724 54.712 664.332 54.712C664.38 54.712 664.404 54.76 664.404 54.856C664.404 54.952 664.38 55 664.332 55C663.852 55 663.468 54.992 663.18 54.976L661.476 54.952L659.82 54.976C659.532 54.992 659.14 55 658.644 55C658.596 55 658.572 54.952 658.572 54.856C658.572 54.76 658.596 54.712 658.644 54.712C659.252 54.712 659.692 54.672 659.964 54.592C660.252 54.512 660.444 54.36 660.54 54.136C660.652 53.896 660.708 53.536 660.708 53.056V41.944C660.708 41.464 660.652 41.112 660.54 40.888C660.444 40.664 660.252 40.512 659.964 40.432C659.692 40.336 659.252 40.288 658.644 40.288C658.596 40.288 658.572 40.24 658.572 40.144C658.572 40.048 658.596 40 658.644 40L659.82 40.024C660.492 40.056 661.044 40.072 661.476 40.072C661.956 40.072 662.532 40.056 663.204 40.024L664.332 40C664.38 40 664.404 40.048 664.404 40.144C664.404 40.24 664.38 40.288 664.332 40.288C663.74 40.288 663.3 40.336 663.012 40.432C662.724 40.528 662.532 40.696 662.436 40.936C662.34 41.16 662.292 41.512 662.292 41.992V53.056ZM649.424 84.288C647.936 84.288 646.64 83.688 645.536 82.488L645.512 82.44C645.512 82.376 645.544 82.328 645.608 82.296C645.688 82.248 645.744 82.248 645.776 82.296C646.192 82.744 646.688 83.08 647.264 83.304C647.856 83.528 648.448 83.64 649.04 83.64C650.128 83.64 650.936 83.304 651.464 82.632C651.992 81.944 652.256 81.056 652.256 79.968C652.256 77.472 650.8 76.224 647.888 76.224C647.872 76.224 647.848 76.208 647.816 76.176C647.8 76.128 647.792 76.08 647.792 76.032C647.792 75.984 647.8 75.944 647.816 75.912C647.848 75.864 647.872 75.84 647.888 75.84C649.296 75.84 650.296 75.56 650.888 75C651.48 74.44 651.776 73.664 651.776 72.672C651.776 71.712 651.536 70.976 651.056 70.464C650.576 69.936 649.904 69.672 649.04 69.672C648.368 69.672 647.728 69.84 647.12 70.176C646.528 70.496 646.088 70.968 645.8 71.592C645.8 71.608 645.784 71.616 645.752 71.616C645.704 71.616 645.648 71.6 645.584 71.568C645.536 71.536 645.52 71.504 645.536 71.472C645.904 70.608 646.448 69.936 647.168 69.456C647.888 68.976 648.728 68.736 649.688 68.736C650.824 68.736 651.712 69.056 652.352 69.696C652.992 70.32 653.312 71.104 653.312 72.048C653.312 72.992 652.992 73.848 652.352 74.616C651.712 75.384 650.864 75.88 649.808 76.104L649.88 75.912C650.728 75.848 651.456 75.984 652.064 76.32C652.688 76.656 653.152 77.136 653.456 77.76C653.776 78.368 653.936 79.048 653.936 79.8C653.936 80.68 653.744 81.464 653.36 82.152C652.976 82.824 652.44 83.352 651.752 83.736C651.064 84.104 650.288 84.288 649.424 84.288ZM661.102 84.312C660.142 84.312 659.286 83.984 658.534 83.328C657.798 82.672 657.222 81.752 656.806 80.568C656.406 79.384 656.206 78.024 656.206 76.488C656.206 74.968 656.414 73.624 656.83 72.456C657.246 71.272 657.822 70.352 658.558 69.696C659.31 69.04 660.174 68.712 661.15 68.712C662.094 68.712 662.926 69.04 663.646 69.696C664.382 70.352 664.95 71.28 665.35 72.48C665.75 73.664 665.95 75.024 665.95 76.56C665.95 78.08 665.742 79.432 665.326 80.616C664.926 81.784 664.358 82.696 663.622 83.352C662.886 83.992 662.046 84.312 661.102 84.312ZM661.39 83.976C662.35 83.976 663.07 83.36 663.55 82.128C664.03 80.88 664.27 79.12 664.27 76.848C664.27 75.12 664.118 73.672 663.814 72.504C663.526 71.336 663.126 70.464 662.614 69.888C662.118 69.312 661.542 69.024 660.886 69.024C659.926 69.024 659.182 69.68 658.654 70.992C658.142 72.304 657.886 74.08 657.886 76.32C657.886 78.672 658.198 80.536 658.822 81.912C659.446 83.288 660.302 83.976 661.39 83.976ZM675.142 82.056C675.142 82.552 675.182 82.912 675.262 83.136C675.342 83.36 675.502 83.512 675.742 83.592C675.982 83.672 676.366 83.712 676.894 83.712C676.926 83.712 676.942 83.76 676.942 83.856C676.942 83.952 676.926 84 676.894 84C676.478 84 676.15 83.992 675.91 83.976L674.398 83.952L672.598 83.976C672.294 83.992 671.878 84 671.35 84C671.302 84 671.278 83.952 671.278 83.856C671.278 83.76 671.302 83.712 671.35 83.712C672.102 83.712 672.63 83.68 672.934 83.616C673.238 83.536 673.438 83.392 673.534 83.184C673.646 82.96 673.702 82.584 673.702 82.056V70.92L674.278 70.488L668.662 78.72C668.598 78.832 668.638 78.888 668.782 78.888C671.662 78.888 674.446 78.84 677.134 78.744C677.198 78.744 677.23 78.912 677.23 79.248C677.23 79.584 677.198 79.752 677.134 79.752C674.782 79.64 671.614 79.584 667.63 79.584C667.55 79.584 667.486 79.56 667.438 79.512C667.406 79.448 667.414 79.384 667.462 79.32L674.758 68.88C674.79 68.848 674.838 68.832 674.902 68.832C675.062 68.832 675.142 68.88 675.142 68.976V82.056Z" fill="black"/>
<path d="M662.292 156.056C662.292 156.552 662.34 156.912 662.436 157.136C662.532 157.36 662.716 157.512 662.988 157.592C663.276 157.672 663.724 157.712 664.332 157.712C664.38 157.712 664.404 157.76 664.404 157.856C664.404 157.952 664.38 158 664.332 158C663.852 158 663.468 157.992 663.18 157.976L661.476 157.952L659.82 157.976C659.532 157.992 659.14 158 658.644 158C658.596 158 658.572 157.952 658.572 157.856C658.572 157.76 658.596 157.712 658.644 157.712C659.252 157.712 659.692 157.672 659.964 157.592C660.252 157.512 660.444 157.36 660.54 157.136C660.652 156.896 660.708 156.536 660.708 156.056V144.944C660.708 144.464 660.652 144.112 660.54 143.888C660.444 143.664 660.252 143.512 659.964 143.432C659.692 143.336 659.252 143.288 658.644 143.288C658.596 143.288 658.572 143.24 658.572 143.144C658.572 143.048 658.596 143 658.644 143L659.82 143.024C660.492 143.056 661.044 143.072 661.476 143.072C661.956 143.072 662.532 143.056 663.204 143.024L664.332 143C664.38 143 664.404 143.048 664.404 143.144C664.404 143.24 664.38 143.288 664.332 143.288C663.74 143.288 663.3 143.336 663.012 143.432C662.724 143.528 662.532 143.696 662.436 143.936C662.34 144.16 662.292 144.512 662.292 144.992V156.056ZM645.444 187C645.364 187 645.292 186.96 645.228 186.88C645.18 186.8 645.188 186.736 645.252 186.688L646.62 184.984C647.772 183.576 648.692 182.408 649.38 181.48C650.068 180.536 650.644 179.576 651.108 178.6C651.572 177.608 651.804 176.656 651.804 175.744C651.804 174.816 651.556 174.088 651.06 173.56C650.564 173.016 649.868 172.744 648.972 172.744C648.172 172.744 647.492 172.976 646.932 173.44C646.372 173.888 645.956 174.536 645.684 175.384C645.684 175.4 645.652 175.408 645.588 175.408C645.46 175.408 645.404 175.376 645.42 175.312C645.644 174.176 646.132 173.296 646.884 172.672C647.636 172.048 648.564 171.736 649.668 171.736C650.82 171.736 651.724 172.072 652.38 172.744C653.052 173.4 653.388 174.248 653.388 175.288C653.388 176.216 653.132 177.176 652.62 178.168C652.108 179.16 651.516 180.072 650.844 180.904C650.172 181.736 649.34 182.696 648.348 183.784C648.204 183.944 647.948 184.224 647.58 184.624C647.228 185.008 646.964 185.328 646.788 185.584C646.708 185.696 646.74 185.752 646.884 185.752C648.964 185.752 650.436 185.728 651.3 185.68C652.164 185.616 652.772 185.472 653.124 185.248C653.476 185.008 653.66 184.624 653.676 184.096C653.676 184.064 653.716 184.048 653.796 184.048C653.892 184.048 653.94 184.064 653.94 184.096L653.916 186.736C653.916 186.8 653.892 186.864 653.844 186.928C653.812 186.976 653.764 187 653.7 187H645.444ZM661.266 187.312C660.306 187.312 659.45 186.984 658.698 186.328C657.962 185.672 657.386 184.752 656.97 183.568C656.57 182.384 656.37 181.024 656.37 179.488C656.37 177.968 656.578 176.624 656.994 175.456C657.41 174.272 657.986 173.352 658.722 172.696C659.474 172.04 660.338 171.712 661.314 171.712C662.258 171.712 663.09 172.04 663.81 172.696C664.546 173.352 665.114 174.28 665.514 175.48C665.914 176.664 666.114 178.024 666.114 179.56C666.114 181.08 665.906 182.432 665.49 183.616C665.09 184.784 664.522 185.696 663.786 186.352C663.05 186.992 662.21 187.312 661.266 187.312ZM661.554 186.976C662.514 186.976 663.234 186.36 663.714 185.128C664.194 183.88 664.434 182.12 664.434 179.848C664.434 178.12 664.282 176.672 663.978 175.504C663.69 174.336 663.29 173.464 662.778 172.888C662.282 172.312 661.706 172.024 661.05 172.024C660.09 172.024 659.346 172.68 658.818 173.992C658.306 175.304 658.05 177.08 658.05 179.32C658.05 181.672 658.362 183.536 658.986 184.912C659.61 186.288 660.466 186.976 661.554 186.976ZM675.306 185.056C675.306 185.552 675.346 185.912 675.426 186.136C675.506 186.36 675.666 186.512 675.906 186.592C676.146 186.672 676.53 186.712 677.058 186.712C677.09 186.712 677.106 186.76 677.106 186.856C677.106 186.952 677.09 187 677.058 187C676.642 187 676.314 186.992 676.074 186.976L674.562 186.952L672.762 186.976C672.458 186.992 672.042 187 671.514 187C671.466 187 671.442 186.952 671.442 186.856C671.442 186.76 671.466 186.712 671.514 186.712C672.266 186.712 672.794 186.68 673.098 186.616C673.402 186.536 673.602 186.392 673.698 186.184C673.81 185.96 673.866 185.584 673.866 185.056V173.92L674.442 173.488L668.826 181.72C668.762 181.832 668.802 181.888 668.946 181.888C671.826 181.888 674.61 181.84 677.298 181.744C677.362 181.744 677.394 181.912 677.394 182.248C677.394 182.584 677.362 182.752 677.298 182.752C674.946 182.64 671.778 182.584 667.794 182.584C667.714 182.584 667.65 182.56 667.602 182.512C667.57 182.448 667.578 182.384 667.626 182.32L674.922 171.88C674.954 171.848 675.002 171.832 675.066 171.832C675.226 171.832 675.306 171.88 675.306 171.976V185.056Z" fill="black"/>
<path d="M662.792 258.056C662.792 258.552 662.84 258.912 662.936 259.136C663.032 259.36 663.216 259.512 663.488 259.592C663.776 259.672 664.224 259.712 664.832 259.712C664.88 259.712 664.904 259.76 664.904 259.856C664.904 259.952 664.88 260 664.832 260C664.352 260 663.968 259.992 663.68 259.976L661.976 259.952L660.32 259.976C660.032 259.992 659.64 260 659.144 260C659.096 260 659.072 259.952 659.072 259.856C659.072 259.76 659.096 259.712 659.144 259.712C659.752 259.712 660.192 259.672 660.464 259.592C660.752 259.512 660.944 259.36 661.04 259.136C661.152 258.896 661.208 258.536 661.208 258.056V246.944C661.208 246.464 661.152 246.112 661.04 245.888C660.944 245.664 660.752 245.512 660.464 245.432C660.192 245.336 659.752 245.288 659.144 245.288C659.096 245.288 659.072 245.24 659.072 245.144C659.072 245.048 659.096 245 659.144 245L660.32 245.024C660.992 245.056 661.544 245.072 661.976 245.072C662.456 245.072 663.032 245.056 663.704 245.024L664.832 245C664.88 245 664.904 245.048 664.904 245.144C664.904 245.24 664.88 245.288 664.832 245.288C664.24 245.288 663.8 245.336 663.512 245.432C663.224 245.528 663.032 245.696 662.936 245.936C662.84 246.16 662.792 246.512 662.792 246.992V258.056ZM647.38 289C647.348 289 647.332 288.952 647.332 288.856C647.332 288.76 647.348 288.712 647.38 288.712C648.132 288.712 648.692 288.672 649.06 288.592C649.428 288.496 649.684 288.336 649.828 288.112C649.988 287.888 650.068 287.536 650.068 287.056V277.168C650.068 276.32 649.86 275.896 649.444 275.896C649.044 275.896 648.324 276.28 647.284 277.048L647.236 277.072C647.172 277.072 647.124 277.032 647.092 276.952C647.06 276.872 647.076 276.816 647.14 276.784L651.148 273.832C651.228 273.784 651.284 273.76 651.316 273.76C651.348 273.76 651.38 273.776 651.412 273.808C651.444 273.84 651.46 273.872 651.46 273.904V287.056C651.46 287.536 651.524 287.896 651.652 288.136C651.78 288.36 652.02 288.512 652.372 288.592C652.74 288.672 653.324 288.712 654.124 288.712C654.156 288.712 654.172 288.76 654.172 288.856C654.172 288.952 654.156 289 654.124 289C653.532 289 653.068 288.992 652.732 288.976L650.764 288.952L648.844 288.976C648.492 288.992 648.004 289 647.38 289ZM661.075 289.312C660.115 289.312 659.259 288.984 658.507 288.328C657.771 287.672 657.195 286.752 656.779 285.568C656.379 284.384 656.179 283.024 656.179 281.488C656.179 279.968 656.387 278.624 656.803 277.456C657.219 276.272 657.795 275.352 658.531 274.696C659.283 274.04 660.147 273.712 661.123 273.712C662.067 273.712 662.899 274.04 663.619 274.696C664.355 275.352 664.923 276.28 665.323 277.48C665.723 278.664 665.923 280.024 665.923 281.56C665.923 283.08 665.715 284.432 665.299 285.616C664.899 286.784 664.331 287.696 663.595 288.352C662.859 288.992 662.019 289.312 661.075 289.312ZM661.363 288.976C662.323 288.976 663.043 288.36 663.523 287.128C664.003 285.88 664.243 284.12 664.243 281.848C664.243 280.12 664.091 278.672 663.787 277.504C663.499 276.336 663.099 275.464 662.587 274.888C662.091 274.312 661.515 274.024 660.859 274.024C659.899 274.024 659.155 274.68 658.627 275.992C658.115 277.304 657.859 279.08 657.859 281.32C657.859 283.672 658.171 285.536 658.795 286.912C659.419 288.288 660.275 288.976 661.363 288.976ZM675.114 287.056C675.114 287.552 675.154 287.912 675.234 288.136C675.314 288.36 675.474 288.512 675.714 288.592C675.954 288.672 676.338 288.712 676.866 288.712C676.898 288.712 676.914 288.76 676.914 288.856C676.914 288.952 676.898 289 676.866 289C676.45 289 676.122 288.992 675.882 288.976L674.37 288.952L672.57 288.976C672.266 288.992 671.85 289 671.322 289C671.274 289 671.25 288.952 671.25 288.856C671.25 288.76 671.274 288.712 671.322 288.712C672.074 288.712 672.602 288.68 672.906 288.616C673.21 288.536 673.41 288.392 673.506 288.184C673.618 287.96 673.674 287.584 673.674 287.056V275.92L674.25 275.488L668.634 283.72C668.57 283.832 668.61 283.888 668.754 283.888C671.634 283.888 674.418 283.84 677.106 283.744C677.17 283.744 677.202 283.912 677.202 284.248C677.202 284.584 677.17 284.752 677.106 284.752C674.754 284.64 671.586 284.584 667.602 284.584C667.522 284.584 667.458 284.56 667.41 284.512C667.378 284.448 667.386 284.384 667.434 284.32L674.73 273.88C674.762 273.848 674.81 273.832 674.874 273.832C675.034 273.832 675.114 273.88 675.114 273.976V287.056Z" fill="black"/>
<path d="M864.792 53.056C864.792 53.552 864.84 53.912 864.936 54.136C865.032 54.36 865.216 54.512 865.488 54.592C865.776 54.672 866.224 54.712 866.832 54.712C866.88 54.712 866.904 54.76 866.904 54.856C866.904 54.952 866.88 55 866.832 55C866.352 55 865.968 54.992 865.68 54.976L863.976 54.952L862.32 54.976C862.032 54.992 861.64 55 861.144 55C861.096 55 861.072 54.952 861.072 54.856C861.072 54.76 861.096 54.712 861.144 54.712C861.752 54.712 862.192 54.672 862.464 54.592C862.752 54.512 862.944 54.36 863.04 54.136C863.152 53.896 863.208 53.536 863.208 53.056V41.944C863.208 41.464 863.152 41.112 863.04 40.888C862.944 40.664 862.752 40.512 862.464 40.432C862.192 40.336 861.752 40.288 861.144 40.288C861.096 40.288 861.072 40.24 861.072 40.144C861.072 40.048 861.096 40 861.144 40L862.32 40.024C862.992 40.056 863.544 40.072 863.976 40.072C864.456 40.072 865.032 40.056 865.704 40.024L866.832 40C866.88 40 866.904 40.048 866.904 40.144C866.904 40.24 866.88 40.288 866.832 40.288C866.24 40.288 865.8 40.336 865.512 40.432C865.224 40.528 865.032 40.696 864.936 40.936C864.84 41.16 864.792 41.512 864.792 41.992V53.056ZM852.206 84.288C850.718 84.288 849.422 83.688 848.318 82.488L848.294 82.44C848.294 82.376 848.326 82.328 848.39 82.296C848.47 82.248 848.526 82.248 848.558 82.296C848.974 82.744 849.47 83.08 850.046 83.304C850.638 83.528 851.23 83.64 851.822 83.64C852.91 83.64 853.718 83.304 854.246 82.632C854.774 81.944 855.038 81.056 855.038 79.968C855.038 77.472 853.582 76.224 850.67 76.224C850.654 76.224 850.63 76.208 850.598 76.176C850.582 76.128 850.574 76.08 850.574 76.032C850.574 75.984 850.582 75.944 850.598 75.912C850.63 75.864 850.654 75.84 850.67 75.84C852.078 75.84 853.078 75.56 853.67 75C854.262 74.44 854.558 73.664 854.558 72.672C854.558 71.712 854.318 70.976 853.838 70.464C853.358 69.936 852.686 69.672 851.822 69.672C851.15 69.672 850.51 69.84 849.902 70.176C849.31 70.496 848.87 70.968 848.582 71.592C848.582 71.608 848.566 71.616 848.534 71.616C848.486 71.616 848.43 71.6 848.366 71.568C848.318 71.536 848.302 71.504 848.318 71.472C848.686 70.608 849.23 69.936 849.95 69.456C850.67 68.976 851.51 68.736 852.47 68.736C853.606 68.736 854.494 69.056 855.134 69.696C855.774 70.32 856.094 71.104 856.094 72.048C856.094 72.992 855.774 73.848 855.134 74.616C854.494 75.384 853.646 75.88 852.59 76.104L852.662 75.912C853.51 75.848 854.238 75.984 854.846 76.32C855.47 76.656 855.934 77.136 856.238 77.76C856.558 78.368 856.718 79.048 856.718 79.8C856.718 80.68 856.526 81.464 856.142 82.152C855.758 82.824 855.222 83.352 854.534 83.736C853.846 84.104 853.07 84.288 852.206 84.288ZM863.883 84.312C862.923 84.312 862.067 83.984 861.315 83.328C860.579 82.672 860.003 81.752 859.587 80.568C859.187 79.384 858.987 78.024 858.987 76.488C858.987 74.968 859.195 73.624 859.611 72.456C860.027 71.272 860.603 70.352 861.339 69.696C862.091 69.04 862.955 68.712 863.931 68.712C864.875 68.712 865.707 69.04 866.427 69.696C867.163 70.352 867.731 71.28 868.131 72.48C868.531 73.664 868.731 75.024 868.731 76.56C868.731 78.08 868.523 79.432 868.107 80.616C867.707 81.784 867.139 82.696 866.403 83.352C865.667 83.992 864.827 84.312 863.883 84.312ZM864.171 83.976C865.131 83.976 865.851 83.36 866.331 82.128C866.811 80.88 867.051 79.12 867.051 76.848C867.051 75.12 866.899 73.672 866.595 72.504C866.307 71.336 865.907 70.464 865.395 69.888C864.899 69.312 864.323 69.024 863.667 69.024C862.707 69.024 861.963 69.68 861.435 70.992C860.923 72.304 860.667 74.08 860.667 76.32C860.667 78.672 860.979 80.536 861.603 81.912C862.227 83.288 863.083 83.976 864.171 83.976ZM871.803 76.008C871.723 76.008 871.659 75.984 871.611 75.936C871.563 75.872 871.547 75.8 871.563 75.72L872.331 69.288C872.347 69.176 872.371 69.104 872.403 69.072C872.435 69.024 872.515 69 872.643 69C874.803 69 876.235 68.992 876.939 68.976C877.659 68.944 878.123 68.888 878.331 68.808C878.555 68.728 878.731 68.56 878.859 68.304C878.859 68.272 878.891 68.256 878.955 68.256C879.003 68.256 879.043 68.272 879.075 68.304C879.123 68.32 879.139 68.344 879.123 68.376L878.811 69.96C878.763 70.136 878.691 70.256 878.595 70.32C878.515 70.368 878.371 70.392 878.163 70.392L873.195 70.272C872.987 70.272 872.867 70.384 872.835 70.608L872.211 75.696L871.803 76.008ZM871.275 82.296C871.659 82.744 872.123 83.08 872.667 83.304C873.211 83.528 873.787 83.64 874.395 83.64C875.515 83.64 876.355 83.28 876.915 82.56C877.491 81.84 877.779 80.904 877.779 79.752C877.779 78.52 877.459 77.536 876.819 76.8C876.195 76.064 875.235 75.696 873.939 75.696C873.587 75.696 873.203 75.728 872.787 75.792C872.387 75.84 872.059 75.912 871.803 76.008C871.787 76.008 871.779 75.992 871.779 75.96C871.779 75.88 871.787 75.8 871.803 75.72C871.835 75.624 871.859 75.552 871.875 75.504C872.179 75.392 872.603 75.28 873.147 75.168C873.707 75.056 874.283 75 874.875 75C876.283 75 877.387 75.392 878.187 76.176C879.003 76.944 879.411 78.048 879.411 79.488C879.411 81.008 878.971 82.192 878.091 83.04C877.211 83.872 876.091 84.288 874.731 84.288C873.979 84.288 873.307 84.144 872.715 83.856C872.123 83.552 871.571 83.096 871.059 82.488L871.035 82.44C871.035 82.376 871.067 82.328 871.131 82.296C871.195 82.248 871.243 82.248 871.275 82.296Z" fill="black"/>
<path d="M864.292 156.056C864.292 156.552 864.34 156.912 864.436 157.136C864.532 157.36 864.716 157.512 864.988 157.592C865.276 157.672 865.724 157.712 866.332 157.712C866.38 157.712 866.404 157.76 866.404 157.856C866.404 157.952 866.38 158 866.332 158C865.852 158 865.468 157.992 865.18 157.976L863.476 157.952L861.82 157.976C861.532 157.992 861.14 158 860.644 158C860.596 158 860.572 157.952 860.572 157.856C860.572 157.76 860.596 157.712 860.644 157.712C861.252 157.712 861.692 157.672 861.964 157.592C862.252 157.512 862.444 157.36 862.54 157.136C862.652 156.896 862.708 156.536 862.708 156.056V144.944C862.708 144.464 862.652 144.112 862.54 143.888C862.444 143.664 862.252 143.512 861.964 143.432C861.692 143.336 861.252 143.288 860.644 143.288C860.596 143.288 860.572 143.24 860.572 143.144C860.572 143.048 860.596 143 860.644 143L861.82 143.024C862.492 143.056 863.044 143.072 863.476 143.072C863.956 143.072 864.532 143.056 865.204 143.024L866.332 143C866.38 143 866.404 143.048 866.404 143.144C866.404 143.24 866.38 143.288 866.332 143.288C865.74 143.288 865.3 143.336 865.012 143.432C864.724 143.528 864.532 143.696 864.436 143.936C864.34 144.16 864.292 144.512 864.292 144.992V156.056ZM847.726 187C847.646 187 847.574 186.96 847.51 186.88C847.462 186.8 847.47 186.736 847.534 186.688L848.902 184.984C850.054 183.576 850.974 182.408 851.662 181.48C852.35 180.536 852.926 179.576 853.39 178.6C853.854 177.608 854.086 176.656 854.086 175.744C854.086 174.816 853.838 174.088 853.342 173.56C852.846 173.016 852.15 172.744 851.254 172.744C850.454 172.744 849.774 172.976 849.214 173.44C848.654 173.888 848.238 174.536 847.966 175.384C847.966 175.4 847.934 175.408 847.87 175.408C847.742 175.408 847.686 175.376 847.702 175.312C847.926 174.176 848.414 173.296 849.166 172.672C849.918 172.048 850.846 171.736 851.95 171.736C853.102 171.736 854.006 172.072 854.662 172.744C855.334 173.4 855.67 174.248 855.67 175.288C855.67 176.216 855.414 177.176 854.902 178.168C854.39 179.16 853.798 180.072 853.126 180.904C852.454 181.736 851.622 182.696 850.63 183.784C850.486 183.944 850.23 184.224 849.862 184.624C849.51 185.008 849.246 185.328 849.07 185.584C848.99 185.696 849.022 185.752 849.166 185.752C851.246 185.752 852.718 185.728 853.582 185.68C854.446 185.616 855.054 185.472 855.406 185.248C855.758 185.008 855.942 184.624 855.958 184.096C855.958 184.064 855.998 184.048 856.078 184.048C856.174 184.048 856.222 184.064 856.222 184.096L856.198 186.736C856.198 186.8 856.174 186.864 856.126 186.928C856.094 186.976 856.046 187 855.982 187H847.726ZM863.547 187.312C862.587 187.312 861.731 186.984 860.979 186.328C860.243 185.672 859.667 184.752 859.251 183.568C858.851 182.384 858.651 181.024 858.651 179.488C858.651 177.968 858.859 176.624 859.275 175.456C859.691 174.272 860.267 173.352 861.003 172.696C861.755 172.04 862.619 171.712 863.595 171.712C864.539 171.712 865.371 172.04 866.091 172.696C866.827 173.352 867.395 174.28 867.795 175.48C868.195 176.664 868.395 178.024 868.395 179.56C868.395 181.08 868.187 182.432 867.771 183.616C867.371 184.784 866.803 185.696 866.067 186.352C865.331 186.992 864.491 187.312 863.547 187.312ZM863.835 186.976C864.795 186.976 865.515 186.36 865.995 185.128C866.475 183.88 866.715 182.12 866.715 179.848C866.715 178.12 866.563 176.672 866.259 175.504C865.971 174.336 865.571 173.464 865.059 172.888C864.563 172.312 863.987 172.024 863.331 172.024C862.371 172.024 861.627 172.68 861.099 173.992C860.587 175.304 860.331 177.08 860.331 179.32C860.331 181.672 860.643 183.536 861.267 184.912C861.891 186.288 862.747 186.976 863.835 186.976ZM871.467 179.008C871.387 179.008 871.323 178.984 871.275 178.936C871.227 178.872 871.211 178.8 871.227 178.72L871.995 172.288C872.011 172.176 872.035 172.104 872.067 172.072C872.099 172.024 872.179 172 872.307 172C874.467 172 875.899 171.992 876.603 171.976C877.323 171.944 877.787 171.888 877.995 171.808C878.219 171.728 878.395 171.56 878.523 171.304C878.523 171.272 878.555 171.256 878.619 171.256C878.667 171.256 878.707 171.272 878.739 171.304C878.787 171.32 878.803 171.344 878.787 171.376L878.475 172.96C878.427 173.136 878.355 173.256 878.259 173.32C878.179 173.368 878.035 173.392 877.827 173.392L872.859 173.272C872.651 173.272 872.531 173.384 872.499 173.608L871.875 178.696L871.467 179.008ZM870.939 185.296C871.323 185.744 871.787 186.08 872.331 186.304C872.875 186.528 873.451 186.64 874.059 186.64C875.179 186.64 876.019 186.28 876.579 185.56C877.155 184.84 877.443 183.904 877.443 182.752C877.443 181.52 877.123 180.536 876.483 179.8C875.859 179.064 874.899 178.696 873.603 178.696C873.251 178.696 872.867 178.728 872.451 178.792C872.051 178.84 871.723 178.912 871.467 179.008C871.451 179.008 871.443 178.992 871.443 178.96C871.443 178.88 871.451 178.8 871.467 178.72C871.499 178.624 871.523 178.552 871.539 178.504C871.843 178.392 872.267 178.28 872.811 178.168C873.371 178.056 873.947 178 874.539 178C875.947 178 877.051 178.392 877.851 179.176C878.667 179.944 879.075 181.048 879.075 182.488C879.075 184.008 878.635 185.192 877.755 186.04C876.875 186.872 875.755 187.288 874.395 187.288C873.643 187.288 872.971 187.144 872.379 186.856C871.787 186.552 871.235 186.096 870.723 185.488L870.699 185.44C870.699 185.376 870.731 185.328 870.795 185.296C870.859 185.248 870.907 185.248 870.939 185.296Z" fill="black"/>
<path d="M864.292 258.056C864.292 258.552 864.34 258.912 864.436 259.136C864.532 259.36 864.716 259.512 864.988 259.592C865.276 259.672 865.724 259.712 866.332 259.712C866.38 259.712 866.404 259.76 866.404 259.856C866.404 259.952 866.38 260 866.332 260C865.852 260 865.468 259.992 865.18 259.976L863.476 259.952L861.82 259.976C861.532 259.992 861.14 260 860.644 260C860.596 260 860.572 259.952 860.572 259.856C860.572 259.76 860.596 259.712 860.644 259.712C861.252 259.712 861.692 259.672 861.964 259.592C862.252 259.512 862.444 259.36 862.54 259.136C862.652 258.896 862.708 258.536 862.708 258.056V246.944C862.708 246.464 862.652 246.112 862.54 245.888C862.444 245.664 862.252 245.512 861.964 245.432C861.692 245.336 861.252 245.288 860.644 245.288C860.596 245.288 860.572 245.24 860.572 245.144C860.572 245.048 860.596 245 860.644 245L861.82 245.024C862.492 245.056 863.044 245.072 863.476 245.072C863.956 245.072 864.532 245.056 865.204 245.024L866.332 245C866.38 245 866.404 245.048 866.404 245.144C866.404 245.24 866.38 245.288 866.332 245.288C865.74 245.288 865.3 245.336 865.012 245.432C864.724 245.528 864.532 245.696 864.436 245.936C864.34 246.16 864.292 246.512 864.292 246.992V258.056ZM849.161 289C849.129 289 849.113 288.952 849.113 288.856C849.113 288.76 849.129 288.712 849.161 288.712C849.913 288.712 850.473 288.672 850.841 288.592C851.209 288.496 851.465 288.336 851.609 288.112C851.769 287.888 851.849 287.536 851.849 287.056V277.168C851.849 276.32 851.641 275.896 851.225 275.896C850.825 275.896 850.105 276.28 849.065 277.048L849.017 277.072C848.953 277.072 848.905 277.032 848.873 276.952C848.841 276.872 848.857 276.816 848.921 276.784L852.929 273.832C853.009 273.784 853.065 273.76 853.097 273.76C853.129 273.76 853.161 273.776 853.193 273.808C853.225 273.84 853.241 273.872 853.241 273.904V287.056C853.241 287.536 853.305 287.896 853.433 288.136C853.561 288.36 853.801 288.512 854.153 288.592C854.521 288.672 855.105 288.712 855.905 288.712C855.937 288.712 855.953 288.76 855.953 288.856C855.953 288.952 855.937 289 855.905 289C855.313 289 854.849 288.992 854.513 288.976L852.545 288.952L850.625 288.976C850.273 288.992 849.785 289 849.161 289ZM862.856 289.312C861.896 289.312 861.04 288.984 860.288 288.328C859.552 287.672 858.976 286.752 858.56 285.568C858.16 284.384 857.96 283.024 857.96 281.488C857.96 279.968 858.168 278.624 858.584 277.456C859 276.272 859.576 275.352 860.312 274.696C861.064 274.04 861.928 273.712 862.904 273.712C863.848 273.712 864.68 274.04 865.4 274.696C866.136 275.352 866.704 276.28 867.104 277.48C867.504 278.664 867.704 280.024 867.704 281.56C867.704 283.08 867.496 284.432 867.08 285.616C866.68 286.784 866.112 287.696 865.376 288.352C864.64 288.992 863.8 289.312 862.856 289.312ZM863.144 288.976C864.104 288.976 864.824 288.36 865.304 287.128C865.784 285.88 866.024 284.12 866.024 281.848C866.024 280.12 865.872 278.672 865.568 277.504C865.28 276.336 864.88 275.464 864.368 274.888C863.872 274.312 863.296 274.024 862.64 274.024C861.68 274.024 860.936 274.68 860.408 275.992C859.896 277.304 859.64 279.08 859.64 281.32C859.64 283.672 859.952 285.536 860.576 286.912C861.2 288.288 862.056 288.976 863.144 288.976ZM870.775 281.008C870.695 281.008 870.631 280.984 870.583 280.936C870.535 280.872 870.519 280.8 870.535 280.72L871.303 274.288C871.319 274.176 871.343 274.104 871.375 274.072C871.407 274.024 871.487 274 871.615 274C873.775 274 875.207 273.992 875.911 273.976C876.631 273.944 877.095 273.888 877.303 273.808C877.527 273.728 877.703 273.56 877.831 273.304C877.831 273.272 877.863 273.256 877.927 273.256C877.975 273.256 878.015 273.272 878.047 273.304C878.095 273.32 878.111 273.344 878.095 273.376L877.783 274.96C877.735 275.136 877.663 275.256 877.567 275.32C877.487 275.368 877.343 275.392 877.135 275.392L872.167 275.272C871.959 275.272 871.839 275.384 871.807 275.608L871.183 280.696L870.775 281.008ZM870.247 287.296C870.631 287.744 871.095 288.08 871.639 288.304C872.183 288.528 872.759 288.64 873.367 288.64C874.487 288.64 875.327 288.28 875.887 287.56C876.463 286.84 876.751 285.904 876.751 284.752C876.751 283.52 876.431 282.536 875.791 281.8C875.167 281.064 874.207 280.696 872.911 280.696C872.559 280.696 872.175 280.728 871.759 280.792C871.359 280.84 871.031 280.912 870.775 281.008C870.759 281.008 870.751 280.992 870.751 280.96C870.751 280.88 870.759 280.8 870.775 280.72C870.807 280.624 870.831 280.552 870.847 280.504C871.151 280.392 871.575 280.28 872.119 280.168C872.679 280.056 873.255 280 873.847 280C875.255 280 876.359 280.392 877.159 281.176C877.975 281.944 878.383 283.048 878.383 284.488C878.383 286.008 877.943 287.192 877.063 288.04C876.183 288.872 875.063 289.288 873.703 289.288C872.951 289.288 872.279 289.144 871.687 288.856C871.095 288.552 870.543 288.096 870.031 287.488L870.007 287.44C870.007 287.376 870.039 287.328 870.103 287.296C870.167 287.248 870.215 287.248 870.247 287.296Z" fill="black"/>
<defs>
<filter id="filter0_d_398_4332" x="0.5" y="0.5" width="1053" height="354" filterUnits="userSpaceOnUse" color-interpolation-filters="sRGB">
<feFlood flood-opacity="0" result="BackgroundImageFix"/>
<feColorMatrix in="SourceAlpha" type="matrix" values="0 0 0 0 0 0 0 0 0 0 0 0 0 0 0 0 0 0 127 0" result="hardAlpha"/>
<feOffset dx="10" dy="10"/>
<feGaussianBlur stdDeviation="5"/>
<feComposite in2="hardAlpha" operator="out"/>
<feColorMatrix type="matrix" values="0 0 0 0 0 0 0 0 0 0 0 0 0 0 0 0 0 0 0.3 0"/>
<feBlend mode="normal" in2="BackgroundImageFix" result="effect1_dropShadow_398_4332"/>
<feBlend mode="normal" in="SourceGraphic" in2="effect1_dropShadow_398_4332" result="shape"/>
</filter>
<filter id="filter1_i_398_4332" x="149.5" y="54.5" width="32" height="54" filterUnits="userSpaceOnUse" color-interpolation-filters="sRGB">
<feFlood flood-opacity="0" result="BackgroundImageFix"/>
<feBlend mode="normal" in="SourceGraphic" in2="BackgroundImageFix" result="shape"/>
<feColorMatrix in="SourceAlpha" type="matrix" values="0 0 0 0 0 0 0 0 0 0 0 0 0 0 0 0 0 0 127 0" result="hardAlpha"/>
<feOffset dy="4"/>
<feGaussianBlur stdDeviation="2"/>
<feComposite in2="hardAlpha" operator="arithmetic" k2="-1" k3="1"/>
<feColorMatrix type="matrix" values="0 0 0 0 0 0 0 0 0 0 0 0 0 0 0 0 0 0 0.25 0"/>
<feBlend mode="normal" in2="shape" result="effect1_innerShadow_398_4332"/>
</filter>
<filter id="filter2_i_398_4332" x="149.5" y="155.5" width="32" height="54" filterUnits="userSpaceOnUse" color-interpolation-filters="sRGB">
<feFlood flood-opacity="0" result="BackgroundImageFix"/>
<feBlend mode="normal" in="SourceGraphic" in2="BackgroundImageFix" result="shape"/>
<feColorMatrix in="SourceAlpha" type="matrix" values="0 0 0 0 0 0 0 0 0 0 0 0 0 0 0 0 0 0 127 0" result="hardAlpha"/>
<feOffset dy="4"/>
<feGaussianBlur stdDeviation="2"/>
<feComposite in2="hardAlpha" operator="arithmetic" k2="-1" k3="1"/>
<feColorMatrix type="matrix" values="0 0 0 0 0 0 0 0 0 0 0 0 0 0 0 0 0 0 0.25 0"/>
<feBlend mode="normal" in2="shape" result="effect1_innerShadow_398_4332"/>
</filter>
<filter id="filter3_i_398_4332" x="149.5" y="260.5" width="32" height="54" filterUnits="userSpaceOnUse" color-interpolation-filters="sRGB">
<feFlood flood-opacity="0" result="BackgroundImageFix"/>
<feBlend mode="normal" in="SourceGraphic" in2="BackgroundImageFix" result="shape"/>
<feColorMatrix in="SourceAlpha" type="matrix" values="0 0 0 0 0 0 0 0 0 0 0 0 0 0 0 0 0 0 127 0" result="hardAlpha"/>
<feOffset dy="4"/>
<feGaussianBlur stdDeviation="2"/>
<feComposite in2="hardAlpha" operator="arithmetic" k2="-1" k3="1"/>
<feColorMatrix type="matrix" values="0 0 0 0 0 0 0 0 0 0 0 0 0 0 0 0 0 0 0.25 0"/>
<feBlend mode="normal" in2="shape" result="effect1_innerShadow_398_4332"/>
</filter>
<filter id="filter4_i_398_4332" x="357.5" y="260.5" width="33" height="54" filterUnits="userSpaceOnUse" color-interpolation-filters="sRGB">
<feFlood flood-opacity="0" result="BackgroundImageFix"/>
<feBlend mode="normal" in="SourceGraphic" in2="BackgroundImageFix" result="shape"/>
<feColorMatrix in="SourceAlpha" type="matrix" values="0 0 0 0 0 0 0 0 0 0 0 0 0 0 0 0 0 0 127 0" result="hardAlpha"/>
<feOffset dy="4"/>
<feGaussianBlur stdDeviation="2"/>
<feComposite in2="hardAlpha" operator="arithmetic" k2="-1" k3="1"/>
<feColorMatrix type="matrix" values="0 0 0 0 0 0 0 0 0 0 0 0 0 0 0 0 0 0 0.25 0"/>
<feBlend mode="normal" in2="shape" result="effect1_innerShadow_398_4332"/>
</filter>
<filter id="filter5_i_398_4332" x="572.5" y="260.5" width="32" height="54" filterUnits="userSpaceOnUse" color-interpolation-filters="sRGB">
<feFlood flood-opacity="0" result="BackgroundImageFix"/>
<feBlend mode="normal" in="SourceGraphic" in2="BackgroundImageFix" result="shape"/>
<feColorMatrix in="SourceAlpha" type="matrix" values="0 0 0 0 0 0 0 0 0 0 0 0 0 0 0 0 0 0 127 0" result="hardAlpha"/>
<feOffset dy="4"/>
<feGaussianBlur stdDeviation="2"/>
<feComposite in2="hardAlpha" operator="arithmetic" k2="-1" k3="1"/>
<feColorMatrix type="matrix" values="0 0 0 0 0 0 0 0 0 0 0 0 0 0 0 0 0 0 0.25 0"/>
<feBlend mode="normal" in2="shape" result="effect1_innerShadow_398_4332"/>
</filter>
<filter id="filter6_i_398_4332" x="775.5" y="260.5" width="32" height="54" filterUnits="userSpaceOnUse" color-interpolation-filters="sRGB">
<feFlood flood-opacity="0" result="BackgroundImageFix"/>
<feBlend mode="normal" in="SourceGraphic" in2="BackgroundImageFix" result="shape"/>
<feColorMatrix in="SourceAlpha" type="matrix" values="0 0 0 0 0 0 0 0 0 0 0 0 0 0 0 0 0 0 127 0" result="hardAlpha"/>
<feOffset dy="4"/>
<feGaussianBlur stdDeviation="2"/>
<feComposite in2="hardAlpha" operator="arithmetic" k2="-1" k3="1"/>
<feColorMatrix type="matrix" values="0 0 0 0 0 0 0 0 0 0 0 0 0 0 0 0 0 0 0.25 0"/>
<feBlend mode="normal" in2="shape" result="effect1_innerShadow_398_4332"/>
</filter>
<filter id="filter7_i_398_4332" x="961.5" y="260.5" width="33" height="54" filterUnits="userSpaceOnUse" color-interpolation-filters="sRGB">
<feFlood flood-opacity="0" result="BackgroundImageFix"/>
<feBlend mode="normal" in="SourceGraphic" in2="BackgroundImageFix" result="shape"/>
<feColorMatrix in="SourceAlpha" type="matrix" values="0 0 0 0 0 0 0 0 0 0 0 0 0 0 0 0 0 0 127 0" result="hardAlpha"/>
<feOffset dy="4"/>
<feGaussianBlur stdDeviation="2"/>
<feComposite in2="hardAlpha" operator="arithmetic" k2="-1" k3="1"/>
<feColorMatrix type="matrix" values="0 0 0 0 0 0 0 0 0 0 0 0 0 0 0 0 0 0 0.25 0"/>
<feBlend mode="normal" in2="shape" result="effect1_innerShadow_398_4332"/>
</filter>
<filter id="filter8_i_398_4332" x="357.5" y="155.5" width="33" height="54" filterUnits="userSpaceOnUse" color-interpolation-filters="sRGB">
<feFlood flood-opacity="0" result="BackgroundImageFix"/>
<feBlend mode="normal" in="SourceGraphic" in2="BackgroundImageFix" result="shape"/>
<feColorMatrix in="SourceAlpha" type="matrix" values="0 0 0 0 0 0 0 0 0 0 0 0 0 0 0 0 0 0 127 0" result="hardAlpha"/>
<feOffset dy="4"/>
<feGaussianBlur stdDeviation="2"/>
<feComposite in2="hardAlpha" operator="arithmetic" k2="-1" k3="1"/>
<feColorMatrix type="matrix" values="0 0 0 0 0 0 0 0 0 0 0 0 0 0 0 0 0 0 0.25 0"/>
<feBlend mode="normal" in2="shape" result="effect1_innerShadow_398_4332"/>
</filter>
<filter id="filter9_i_398_4332" x="572.5" y="155.5" width="32" height="54" filterUnits="userSpaceOnUse" color-interpolation-filters="sRGB">
<feFlood flood-opacity="0" result="BackgroundImageFix"/>
<feBlend mode="normal" in="SourceGraphic" in2="BackgroundImageFix" result="shape"/>
<feColorMatrix in="SourceAlpha" type="matrix" values="0 0 0 0 0 0 0 0 0 0 0 0 0 0 0 0 0 0 127 0" result="hardAlpha"/>
<feOffset dy="4"/>
<feGaussianBlur stdDeviation="2"/>
<feComposite in2="hardAlpha" operator="arithmetic" k2="-1" k3="1"/>
<feColorMatrix type="matrix" values="0 0 0 0 0 0 0 0 0 0 0 0 0 0 0 0 0 0 0.25 0"/>
<feBlend mode="normal" in2="shape" result="effect1_innerShadow_398_4332"/>
</filter>
<filter id="filter10_i_398_4332" x="775.5" y="155.5" width="32" height="54" filterUnits="userSpaceOnUse" color-interpolation-filters="sRGB">
<feFlood flood-opacity="0" result="BackgroundImageFix"/>
<feBlend mode="normal" in="SourceGraphic" in2="BackgroundImageFix" result="shape"/>
<feColorMatrix in="SourceAlpha" type="matrix" values="0 0 0 0 0 0 0 0 0 0 0 0 0 0 0 0 0 0 127 0" result="hardAlpha"/>
<feOffset dy="4"/>
<feGaussianBlur stdDeviation="2"/>
<feComposite in2="hardAlpha" operator="arithmetic" k2="-1" k3="1"/>
<feColorMatrix type="matrix" values="0 0 0 0 0 0 0 0 0 0 0 0 0 0 0 0 0 0 0.25 0"/>
<feBlend mode="normal" in2="shape" result="effect1_innerShadow_398_4332"/>
</filter>
<filter id="filter11_i_398_4332" x="961.5" y="155.5" width="33" height="54" filterUnits="userSpaceOnUse" color-interpolation-filters="sRGB">
<feFlood flood-opacity="0" result="BackgroundImageFix"/>
<feBlend mode="normal" in="SourceGraphic" in2="BackgroundImageFix" result="shape"/>
<feColorMatrix in="SourceAlpha" type="matrix" values="0 0 0 0 0 0 0 0 0 0 0 0 0 0 0 0 0 0 127 0" result="hardAlpha"/>
<feOffset dy="4"/>
<feGaussianBlur stdDeviation="2"/>
<feComposite in2="hardAlpha" operator="arithmetic" k2="-1" k3="1"/>
<feColorMatrix type="matrix" values="0 0 0 0 0 0 0 0 0 0 0 0 0 0 0 0 0 0 0.25 0"/>
<feBlend mode="normal" in2="shape" result="effect1_innerShadow_398_4332"/>
</filter>
<filter id="filter12_i_398_4332" x="357.5" y="54.5" width="33" height="54" filterUnits="userSpaceOnUse" color-interpolation-filters="sRGB">
<feFlood flood-opacity="0" result="BackgroundImageFix"/>
<feBlend mode="normal" in="SourceGraphic" in2="BackgroundImageFix" result="shape"/>
<feColorMatrix in="SourceAlpha" type="matrix" values="0 0 0 0 0 0 0 0 0 0 0 0 0 0 0 0 0 0 127 0" result="hardAlpha"/>
<feOffset dy="4"/>
<feGaussianBlur stdDeviation="2"/>
<feComposite in2="hardAlpha" operator="arithmetic" k2="-1" k3="1"/>
<feColorMatrix type="matrix" values="0 0 0 0 0 0 0 0 0 0 0 0 0 0 0 0 0 0 0.25 0"/>
<feBlend mode="normal" in2="shape" result="effect1_innerShadow_398_4332"/>
</filter>
<filter id="filter13_i_398_4332" x="570.5" y="54.5" width="32" height="54" filterUnits="userSpaceOnUse" color-interpolation-filters="sRGB">
<feFlood flood-opacity="0" result="BackgroundImageFix"/>
<feBlend mode="normal" in="SourceGraphic" in2="BackgroundImageFix" result="shape"/>
<feColorMatrix in="SourceAlpha" type="matrix" values="0 0 0 0 0 0 0 0 0 0 0 0 0 0 0 0 0 0 127 0" result="hardAlpha"/>
<feOffset dy="4"/>
<feGaussianBlur stdDeviation="2"/>
<feComposite in2="hardAlpha" operator="arithmetic" k2="-1" k3="1"/>
<feColorMatrix type="matrix" values="0 0 0 0 0 0 0 0 0 0 0 0 0 0 0 0 0 0 0.25 0"/>
<feBlend mode="normal" in2="shape" result="effect1_innerShadow_398_4332"/>
</filter>
<filter id="filter14_i_398_4332" x="774.5" y="54.5" width="33" height="54" filterUnits="userSpaceOnUse" color-interpolation-filters="sRGB">
<feFlood flood-opacity="0" result="BackgroundImageFix"/>
<feBlend mode="normal" in="SourceGraphic" in2="BackgroundImageFix" result="shape"/>
<feColorMatrix in="SourceAlpha" type="matrix" values="0 0 0 0 0 0 0 0 0 0 0 0 0 0 0 0 0 0 127 0" result="hardAlpha"/>
<feOffset dy="4"/>
<feGaussianBlur stdDeviation="2"/>
<feComposite in2="hardAlpha" operator="arithmetic" k2="-1" k3="1"/>
<feColorMatrix type="matrix" values="0 0 0 0 0 0 0 0 0 0 0 0 0 0 0 0 0 0 0.25 0"/>
<feBlend mode="normal" in2="shape" result="effect1_innerShadow_398_4332"/>
</filter>
<filter id="filter15_i_398_4332" x="962.5" y="54.5" width="33" height="54" filterUnits="userSpaceOnUse" color-interpolation-filters="sRGB">
<feFlood flood-opacity="0" result="BackgroundImageFix"/>
<feBlend mode="normal" in="SourceGraphic" in2="BackgroundImageFix" result="shape"/>
<feColorMatrix in="SourceAlpha" type="matrix" values="0 0 0 0 0 0 0 0 0 0 0 0 0 0 0 0 0 0 127 0" result="hardAlpha"/>
<feOffset dy="4"/>
<feGaussianBlur stdDeviation="2"/>
<feComposite in2="hardAlpha" operator="arithmetic" k2="-1" k3="1"/>
<feColorMatrix type="matrix" values="0 0 0 0 0 0 0 0 0 0 0 0 0 0 0 0 0 0 0.25 0"/>
<feBlend mode="normal" in2="shape" result="effect1_innerShadow_398_4332"/>
</filter>
</defs>
</svg>
